<svg version="1.1" id="Layer_1" xmlns="http://www.w3.org/2000/svg" xmlns:xlink="http://www.w3.org/1999/xlink" x="0px" y="0px"
	 width="100%" viewBox="0 0 2602 1692" enable-background="new 0 0 2602 1692" xml:space="preserve">
<path fill="#414D63" opacity="1.000000" stroke="none" 
	d="
M1714.000000,1694.000000 
	C1466.624878,1694.000000 1219.249756,1694.000000 970.737793,1693.352539 
	C965.208252,1688.289673 960.854980,1683.833984 956.416443,1679.465088 
	C929.133789,1652.610718 902.630920,1625.025269 877.246521,1596.352295 
	C862.511108,1579.707642 847.091553,1563.670654 832.215637,1547.148071 
	C820.675903,1534.330933 809.265076,1521.381836 798.231079,1508.129883 
	C786.964661,1494.599243 776.120239,1480.711426 765.301147,1466.816406 
	C759.175476,1458.949219 753.638733,1450.624756 747.543823,1442.732300 
	C734.758850,1426.176758 721.515259,1409.969604 708.960632,1393.243652 
	C697.826538,1378.410522 687.371460,1363.067627 676.611328,1347.953613 
	C674.877808,1345.518555 673.031128,1343.159790 671.381592,1340.669922 
	C662.215210,1326.834717 653.146912,1312.934326 643.938904,1299.126953 
	C637.309448,1289.186157 630.150085,1279.580688 623.876038,1269.424805 
	C613.766541,1253.060181 604.217529,1236.349854 594.384888,1219.813354 
	C583.009094,1200.681763 571.515686,1181.619629 560.207947,1162.447998 
	C554.979858,1153.583984 550.023376,1144.558105 545.028442,1135.558594 
	C536.990173,1121.075562 528.543823,1106.794067 521.111938,1092.004150 
	C496.605133,1043.234375 471.323456,994.832520 450.172058,944.440186 
	C443.746521,929.131653 436.358490,914.223999 430.051300,898.869812 
	C420.202972,874.895203 410.792389,850.738403 401.403900,826.578125 
	C395.022522,810.156494 388.789093,793.670593 382.877655,777.075134 
	C378.303986,764.235168 374.314575,751.186462 370.096741,738.220398 
	C363.517120,717.993713 356.597870,697.868103 350.495605,677.497986 
	C343.434082,653.925781 336.897583,630.190063 330.505249,606.425232 
	C323.073090,578.794861 315.513275,551.180237 308.993835,523.328247 
	C302.782684,496.793243 297.882507,469.952545 292.315674,443.265045 
	C290.412994,434.143707 287.856018,425.145508 286.263733,415.975464 
	C282.856079,396.350586 279.453003,376.706635 276.865570,356.963318 
	C274.751862,340.834534 271.204193,324.986237 269.388367,308.745422 
	C266.440582,282.380310 262.177155,256.136963 259.743896,229.676758 
	C259.410095,226.046677 258.359070,222.479355 258.071014,218.848801 
	C256.574524,199.987549 255.089050,181.123672 253.846252,162.244492 
	C252.428680,140.710480 251.259674,119.160011 250.010559,97.615074 
	C249.798721,93.961166 249.845306,90.290207 249.570160,86.642387 
	C248.422150,71.421295 246.803986,56.223660 246.120193,40.983231 
	C245.538269,28.013132 246.000000,14.996208 246.000000,2.000000 
	C370.708466,2.000000 495.416901,2.000000 621.062744,2.936247 
	C622.666687,22.457066 623.328247,41.041821 624.001465,59.626156 
	C624.686646,78.543518 625.380066,97.460579 626.084473,116.377228 
	C626.121521,117.371796 626.302185,118.360550 626.403931,119.353249 
	C628.263977,137.490494 630.084229,155.631912 631.990845,173.764252 
	C634.210510,194.872589 636.234009,216.006821 638.859009,237.065460 
	C640.744812,252.194473 643.492310,267.215637 645.829163,282.289001 
	C649.486633,305.880524 652.475464,329.598602 656.936340,353.036835 
	C662.089355,380.111969 668.252747,407.006622 674.497314,433.858704 
	C680.054321,457.754272 686.254700,481.501648 692.306580,505.279938 
	C694.844238,515.250610 697.544067,525.188416 700.499512,535.042419 
	C706.122375,553.790344 711.743408,572.544922 717.804138,591.153809 
	C725.303467,614.180115 733.230652,637.067322 741.008667,660.002441 
	C745.904663,674.439331 752.591675,688.314697 754.188965,703.786865 
	C754.413879,705.965271 756.662537,707.934753 758.083374,710.758179 
	C757.872864,712.999084 757.553345,714.482727 756.616211,716.032410 
	C751.417847,718.852722 751.422058,719.159302 756.181641,722.805176 
	C755.886108,725.727112 755.488342,727.843140 754.480408,730.031433 
	C749.427917,732.945435 749.441040,733.248291 754.261597,736.853760 
	C753.947815,741.124817 753.499207,744.541077 752.443359,748.031189 
	C747.430542,750.958801 747.444397,751.255249 752.245605,754.870117 
	C751.934570,759.813232 751.489319,763.885193 750.403076,768.050293 
	C744.962830,771.806519 744.989746,772.465576 750.235779,776.890015 
	C749.932556,783.174927 749.476379,788.567627 748.412476,794.179810 
	C742.953491,799.498047 742.985962,800.239380 748.407288,804.916565 
	C744.455383,866.891113 754.289551,926.014771 772.987793,983.952271 
	C795.059204,1052.342041 823.785461,1117.794556 859.186646,1180.326904 
	C881.250061,1219.299683 905.924561,1256.397095 937.007751,1288.902710 
	C970.086426,1323.494995 1008.023560,1351.280273 1051.931274,1370.617432 
	C1084.319214,1384.881470 1118.439941,1393.261230 1153.058350,1399.839233 
	C1158.134277,1400.803833 1163.291748,1401.454346 1168.442139,1401.880005 
	C1174.386719,1402.371094 1180.378052,1402.285278 1186.326904,1402.740234 
	C1208.235962,1404.415894 1230.108765,1406.833984 1252.046631,1407.794678 
	C1275.994751,1408.843628 1300.000122,1408.584961 1324.143555,1409.532715 
	C1326.654175,1413.307251 1328.550171,1416.958130 1331.429077,1419.492310 
	C1342.393677,1429.144043 1353.680664,1438.429443 1364.837769,1447.862915 
	C1378.018921,1459.007446 1390.992188,1470.408447 1404.410034,1481.259766 
	C1426.620972,1499.222534 1448.917480,1517.091919 1471.560669,1534.503052 
	C1486.541748,1546.022461 1502.151978,1556.728027 1517.557373,1567.689819 
	C1526.465942,1574.028687 1535.527710,1580.152222 1544.518066,1586.376221 
	C1545.338867,1586.944214 1546.131104,1587.553711 1546.953979,1588.118530 
	C1558.432251,1595.994873 1569.759766,1604.104736 1581.441650,1611.666504 
	C1591.177368,1617.968506 1601.350830,1623.591797 1611.293335,1629.577393 
	C1630.867920,1641.362183 1650.381836,1653.248169 1669.995972,1664.966797 
	C1676.519165,1668.864380 1683.300415,1672.327393 1689.911377,1676.081299 
	C1695.662476,1679.347168 1701.545532,1682.446289 1706.964355,1686.204224 
	C1709.764893,1688.146362 1711.683105,1691.360474 1714.000000,1694.000000 
z"/>
<path fill="#525D71" opacity="1.000000" stroke="none" 
	d="
M1316.000000,2.000000 
	C1468.708496,2.000000 1621.416870,2.000000 1775.062622,2.904872 
	C1776.534668,10.086415 1777.097046,16.360876 1777.598633,22.640186 
	C1779.078857,41.168144 1780.339355,59.716534 1782.090088,78.218666 
	C1782.868530,86.447327 1784.618042,94.584053 1785.924805,102.762787 
	C1787.284790,111.272499 1788.681519,119.776604 1789.982422,128.295319 
	C1790.532593,131.898331 1790.534058,135.615143 1791.378174,139.138123 
	C1795.241943,155.263733 1799.289185,171.345703 1803.321533,187.430603 
	C1807.180664,202.824371 1810.296021,218.464355 1815.187500,233.525497 
	C1822.344727,255.563446 1831.112305,277.073029 1838.605225,299.008728 
	C1846.169922,321.154175 1856.904053,341.796814 1867.311401,362.620361 
	C1873.715820,375.434753 1880.151611,388.233582 1886.508667,401.071381 
	C1888.278442,404.645233 1889.429199,408.577271 1891.532104,411.925385 
	C1899.631226,424.821014 1907.990479,437.553528 1916.286011,450.325378 
	C1917.187988,451.713898 1918.370239,452.917725 1919.311523,454.283600 
	C1922.871826,459.450012 1926.424561,464.622681 1929.901733,469.845154 
	C1931.555786,472.329376 1932.596558,475.374481 1934.661255,477.408020 
	C1948.691406,491.226898 1956.428467,510.152252 1971.724243,522.919189 
	C1972.468140,523.540222 1972.894043,524.529968 1973.521118,525.305176 
	C1983.737549,537.936279 1993.322021,551.154114 2004.340942,563.042114 
	C2019.503906,579.401123 2035.740356,594.765930 2051.550293,610.523010 
	C2053.904053,612.868835 2056.345215,615.146545 2058.907959,617.259338 
	C2071.951172,628.011963 2085.000244,638.757874 2098.136230,649.396790 
	C2116.172607,664.004761 2134.746094,677.788391 2154.148682,690.649841 
	C2169.876709,701.075439 2185.363770,711.812500 2201.738037,721.227722 
	C2205.143799,723.186157 2208.083008,725.981384 2211.541504,727.818298 
	C2220.531738,732.593262 2229.751709,736.933533 2238.766846,741.663208 
	C2249.612549,747.353149 2259.841797,754.696411 2271.259766,758.684387 
	C2282.894531,762.747986 2293.295654,769.137207 2304.724609,773.376526 
	C2321.196533,779.486572 2337.532227,785.977905 2354.104248,791.799438 
	C2367.545654,796.521240 2381.221680,800.585571 2394.844727,804.775879 
	C2407.202393,808.576965 2419.527344,812.557922 2432.055908,815.706177 
	C2442.596680,818.354980 2453.991455,817.296387 2463.851318,823.187683 
	C2465.409912,824.119019 2467.756348,823.675720 2469.716064,824.001709 
	C2480.169189,825.740540 2490.621094,827.487427 2501.060791,829.304321 
	C2505.640625,830.101379 2510.154785,831.385315 2514.760010,831.909119 
	C2536.516602,834.383301 2558.316406,836.493774 2580.047607,839.165894 
	C2584.730957,839.741699 2588.878662,839.463196 2592.150635,836.357239 
	C2595.805420,832.888000 2599.595215,832.491638 2604.000000,834.000000 
	C2604.000000,1013.375122 2604.000000,1192.750244 2603.135010,1373.066406 
	C2595.001709,1374.671631 2587.729004,1375.912598 2580.465820,1375.859497 
	C2570.525146,1375.786987 2560.588379,1374.776611 2550.655762,1374.087158 
	C2531.781738,1372.777222 2512.903809,1371.512329 2494.042725,1370.034546 
	C2477.824707,1368.763794 2461.530762,1367.912720 2445.825195,1363.012451 
	C2443.943604,1362.425415 2441.898193,1362.366821 2439.929688,1362.054810 
	C2414.691162,1358.052612 2389.362549,1354.534180 2364.242432,1349.890869 
	C2344.344727,1346.213013 2324.624756,1341.470337 2304.968262,1336.622559 
	C2285.011475,1331.700806 2265.117676,1326.450806 2245.393799,1320.671875 
	C2205.462402,1308.972656 2165.962402,1295.978149 2127.552979,1279.835083 
	C2106.102295,1270.819702 2084.399170,1262.399414 2063.022949,1253.214966 
	C2045.904541,1245.859863 2028.897583,1238.177856 2012.226562,1229.868042 
	C1995.257812,1221.409912 1978.722290,1212.076050 1962.068237,1202.995361 
	C1948.940918,1195.837524 1935.654785,1188.916870 1922.917114,1181.110962 
	C1904.246338,1169.669189 1885.899536,1157.686646 1867.609985,1145.638062 
	C1853.730591,1136.494751 1840.079224,1126.997559 1826.505737,1117.404175 
	C1823.566162,1115.326538 1821.038696,1113.981812 1817.394409,1115.114380 
	C1815.211670,1115.792603 1812.806152,1115.754639 1810.605957,1115.357056 
	C1824.889160,1088.190796 1836.685303,1060.691040 1846.023804,1032.131958 
	C1860.072266,989.168884 1868.366211,945.033936 1871.441650,900.034363 
	C1873.096802,875.816956 1874.119873,851.386292 1872.898560,827.179504 
	C1870.714844,783.904053 1859.003296,742.556641 1843.149902,702.364319 
	C1824.903320,656.104370 1802.308716,611.931274 1778.023071,568.637512 
	C1726.112671,476.097168 1656.507202,400.564087 1563.519897,347.907562 
	C1517.682007,321.950623 1468.928101,303.499084 1417.109741,293.892914 
	C1393.585083,289.531891 1369.707275,287.074921 1346.039917,283.017944 
	C1350.354858,274.793304 1348.813599,266.966736 1347.290894,259.206818 
	C1344.550049,245.237152 1341.440674,231.337128 1338.868652,217.337570 
	C1335.152710,197.110458 1331.096313,176.908813 1328.460449,156.531326 
	C1326.080933,138.137360 1325.429688,119.520576 1323.978394,101.005020 
	C1323.745605,98.034348 1323.417603,95.063042 1322.955811,92.119904 
	C1321.365479,81.985916 1318.884033,71.916412 1318.230225,61.726860 
	C1316.955200,41.852016 1316.685791,21.912647 1316.000000,2.000000 
z"/>
<path fill="#3B475E" opacity="1.000000" stroke="none" 
	d="
M245.062683,2.000000 
	C246.000000,14.996208 245.538269,28.013132 246.120193,40.983231 
	C246.803986,56.223660 248.422150,71.421295 249.570160,86.642387 
	C249.845306,90.290207 249.798721,93.961166 250.010559,97.615074 
	C251.259674,119.160011 252.428680,140.710480 253.846252,162.244492 
	C255.089050,181.123672 256.574524,199.987549 258.071014,218.848801 
	C258.359070,222.479355 259.410095,226.046677 259.743896,229.676758 
	C262.177155,256.136963 266.440582,282.380310 269.388367,308.745422 
	C271.204193,324.986237 274.751862,340.834534 276.865570,356.963318 
	C279.453003,376.706635 282.856079,396.350586 286.263733,415.975464 
	C287.856018,425.145508 290.412994,434.143707 292.315674,443.265045 
	C297.882507,469.952545 302.782684,496.793243 308.993835,523.328247 
	C315.513275,551.180237 323.073090,578.794861 330.505249,606.425232 
	C336.897583,630.190063 343.434082,653.925781 350.495605,677.497986 
	C356.597870,697.868103 363.517120,717.993713 370.096741,738.220398 
	C374.314575,751.186462 378.303986,764.235168 382.877655,777.075134 
	C388.789093,793.670593 395.022522,810.156494 401.403900,826.578125 
	C410.792389,850.738403 420.202972,874.895203 430.051300,898.869812 
	C436.358490,914.223999 443.746521,929.131653 450.172058,944.440186 
	C471.323456,994.832520 496.605133,1043.234375 521.111938,1092.004150 
	C528.543823,1106.794067 536.990173,1121.075562 545.028442,1135.558594 
	C550.023376,1144.558105 554.979858,1153.583984 560.207947,1162.447998 
	C571.515686,1181.619629 583.009094,1200.681763 594.384888,1219.813354 
	C604.217529,1236.349854 613.766541,1253.060181 623.876038,1269.424805 
	C630.150085,1279.580688 637.309448,1289.186157 643.938904,1299.126953 
	C653.146912,1312.934326 662.215210,1326.834717 671.381592,1340.669922 
	C673.031128,1343.159790 674.877808,1345.518555 676.611328,1347.953613 
	C687.371460,1363.067627 697.826538,1378.410522 708.960632,1393.243652 
	C721.515259,1409.969604 734.758850,1426.176758 747.543823,1442.732300 
	C753.638733,1450.624756 759.175476,1458.949219 765.301147,1466.816406 
	C776.120239,1480.711426 786.964661,1494.599243 798.231079,1508.129883 
	C809.265076,1521.381836 820.675903,1534.330933 832.215637,1547.148071 
	C847.091553,1563.670654 862.511108,1579.707642 877.246521,1596.352295 
	C902.630920,1625.025269 929.133789,1652.610718 956.416443,1679.465088 
	C960.854980,1683.833984 965.208252,1688.289673 969.800415,1693.352539 
	C807.958191,1694.000000 645.916443,1694.000000 482.743896,1693.360596 
	C471.643616,1680.326172 461.559479,1668.021362 451.736542,1655.511475 
	C441.701691,1642.731323 431.754852,1629.874512 422.079620,1616.821411 
	C412.396698,1603.757935 402.985260,1590.488525 393.659454,1577.166138 
	C382.994629,1561.930908 372.640930,1546.478149 361.990234,1531.232910 
	C354.024689,1519.831177 345.469177,1508.829834 337.784515,1497.246704 
	C329.339325,1484.516968 321.592468,1471.323975 313.537964,1458.334961 
	C307.425659,1448.478027 301.302856,1438.627686 295.194183,1428.768555 
	C289.294464,1419.246460 283.394440,1409.724609 277.516693,1400.188965 
	C268.682892,1385.857666 259.496887,1371.726685 251.148071,1357.117798 
	C242.443787,1341.886841 234.716721,1326.101196 226.260956,1310.723633 
	C218.630737,1296.847778 210.071365,1283.463745 202.841415,1269.390381 
	C186.718765,1238.006958 171.151047,1206.338135 155.398407,1174.765137 
	C149.793182,1163.530396 144.035492,1152.360229 138.831451,1140.939941 
	C131.412689,1124.659424 124.465698,1108.164429 117.265656,1091.783691 
	C113.659866,1083.580200 109.736092,1075.510864 106.325424,1067.228760 
	C102.422035,1057.750122 99.093094,1048.035522 95.226471,1038.540894 
	C83.440506,1009.599792 71.008606,980.910034 59.798630,951.749390 
	C50.045135,926.377625 41.407780,900.567749 32.647934,874.825317 
	C22.702417,845.598511 10.890793,816.919861 6.000528,786.148010 
	C5.650022,783.942383 3.378396,782.042175 2.000008,780.000000 
	C2.000000,520.888794 2.000000,261.777588 2.000000,2.000000 
	C82.707230,2.000000 163.416306,2.000000 245.062683,2.000000 
z"/>
<path fill="#495469" opacity="1.000000" stroke="none" 
	d="
M1810.500854,1116.038574 
	C1812.806152,1115.754639 1815.211670,1115.792603 1817.394409,1115.114380 
	C1821.038696,1113.981812 1823.566162,1115.326538 1826.505737,1117.404175 
	C1840.079224,1126.997559 1853.730591,1136.494751 1867.609985,1145.638062 
	C1885.899536,1157.686646 1904.246338,1169.669189 1922.917114,1181.110962 
	C1935.654785,1188.916870 1948.940918,1195.837524 1962.068237,1202.995361 
	C1978.722290,1212.076050 1995.257812,1221.409912 2012.226562,1229.868042 
	C2028.897583,1238.177856 2045.904541,1245.859863 2063.022949,1253.214966 
	C2084.399170,1262.399414 2106.102295,1270.819702 2127.552979,1279.835083 
	C2165.962402,1295.978149 2205.462402,1308.972656 2245.393799,1320.671875 
	C2265.117676,1326.450806 2285.011475,1331.700806 2304.968262,1336.622559 
	C2324.624756,1341.470337 2344.344727,1346.213013 2364.242432,1349.890869 
	C2389.362549,1354.534180 2414.691162,1358.052612 2439.929688,1362.054810 
	C2441.898193,1362.366821 2443.943604,1362.425415 2445.825195,1363.012451 
	C2461.530762,1367.912720 2477.824707,1368.763794 2494.042725,1370.034546 
	C2512.903809,1371.512329 2531.781738,1372.777222 2550.655762,1374.087158 
	C2560.588379,1374.776611 2570.525146,1375.786987 2580.465820,1375.859497 
	C2587.729004,1375.912598 2595.001709,1374.671631 2603.135010,1374.003662 
	C2604.000000,1480.589478 2604.000000,1587.179077 2604.000000,1694.000000 
	C2307.958252,1694.000000 2011.916382,1694.000000 1714.937256,1694.000000 
	C1711.683105,1691.360474 1709.764893,1688.146362 1706.964355,1686.204224 
	C1701.545532,1682.446289 1695.662476,1679.347168 1689.911377,1676.081299 
	C1683.300415,1672.327393 1676.519165,1668.864380 1669.995972,1664.966797 
	C1650.381836,1653.248169 1630.867920,1641.362183 1611.293335,1629.577393 
	C1601.350830,1623.591797 1591.177368,1617.968506 1581.441650,1611.666504 
	C1569.759766,1604.104736 1558.432251,1595.994873 1546.953979,1588.118530 
	C1546.131104,1587.553711 1545.338867,1586.944214 1544.518066,1586.376221 
	C1535.527710,1580.152222 1526.465942,1574.028687 1517.557373,1567.689819 
	C1502.151978,1556.728027 1486.541748,1546.022461 1471.560669,1534.503052 
	C1448.917480,1517.091919 1426.620972,1499.222534 1404.410034,1481.259766 
	C1390.992188,1470.408447 1378.018921,1459.007446 1364.837769,1447.862915 
	C1353.680664,1438.429443 1342.393677,1429.144043 1331.429077,1419.492310 
	C1328.550171,1416.958130 1326.654175,1413.307251 1325.045410,1409.316650 
	C1356.866211,1407.267212 1387.391235,1402.364258 1417.482666,1394.619507 
	C1500.933716,1373.141479 1577.801514,1336.988770 1649.358887,1289.437012 
	C1699.198975,1256.317017 1742.387573,1215.867310 1777.377197,1167.156860 
	C1789.209106,1150.685425 1799.503784,1133.109741 1810.500854,1116.038574 
z"/>
<path fill="#5A6477" opacity="1.000000" stroke="none" 
	d="
M2604.000000,833.062683 
	C2599.595215,832.491638 2595.805420,832.888000 2592.150635,836.357239 
	C2588.878662,839.463196 2584.730957,839.741699 2580.047607,839.165894 
	C2558.316406,836.493774 2536.516602,834.383301 2514.760010,831.909119 
	C2510.154785,831.385315 2505.640625,830.101379 2501.060791,829.304321 
	C2490.621094,827.487427 2480.169189,825.740540 2469.716064,824.001709 
	C2467.756348,823.675720 2465.409912,824.119019 2463.851318,823.187683 
	C2453.991455,817.296387 2442.596680,818.354980 2432.055908,815.706177 
	C2419.527344,812.557922 2407.202393,808.576965 2394.844727,804.775879 
	C2381.221680,800.585571 2367.545654,796.521240 2354.104248,791.799438 
	C2337.532227,785.977905 2321.196533,779.486572 2304.724609,773.376526 
	C2293.295654,769.137207 2282.894531,762.747986 2271.259766,758.684387 
	C2259.841797,754.696411 2249.612549,747.353149 2238.766846,741.663208 
	C2229.751709,736.933533 2220.531738,732.593262 2211.541504,727.818298 
	C2208.083008,725.981384 2205.143799,723.186157 2201.738037,721.227722 
	C2185.363770,711.812500 2169.876709,701.075439 2154.148682,690.649841 
	C2134.746094,677.788391 2116.172607,664.004761 2098.136230,649.396790 
	C2085.000244,638.757874 2071.951172,628.011963 2058.907959,617.259338 
	C2056.345215,615.146545 2053.904053,612.868835 2051.550293,610.523010 
	C2035.740356,594.765930 2019.503906,579.401123 2004.340942,563.042114 
	C1993.322021,551.154114 1983.737549,537.936279 1973.521118,525.305176 
	C1972.894043,524.529968 1972.468140,523.540222 1971.724243,522.919189 
	C1956.428467,510.152252 1948.691406,491.226898 1934.661255,477.408020 
	C1932.596558,475.374481 1931.555786,472.329376 1929.901733,469.845154 
	C1926.424561,464.622681 1922.871826,459.450012 1919.311523,454.283600 
	C1918.370239,452.917725 1917.187988,451.713898 1916.286011,450.325378 
	C1907.990479,437.553528 1899.631226,424.821014 1891.532104,411.925385 
	C1889.429199,408.577271 1888.278442,404.645233 1886.508667,401.071381 
	C1880.151611,388.233582 1873.715820,375.434753 1867.311401,362.620361 
	C1856.904053,341.796814 1846.169922,321.154175 1838.605225,299.008728 
	C1831.112305,277.073029 1822.344727,255.563446 1815.187500,233.525497 
	C1810.296021,218.464355 1807.180664,202.824371 1803.321533,187.430603 
	C1799.289185,171.345703 1795.241943,155.263733 1791.378174,139.138123 
	C1790.534058,135.615143 1790.532593,131.898331 1789.982422,128.295319 
	C1788.681519,119.776604 1787.284790,111.272499 1785.924805,102.762787 
	C1784.618042,94.584053 1782.868530,86.447327 1782.090088,78.218666 
	C1780.339355,59.716534 1779.078857,41.168144 1777.598633,22.640186 
	C1777.097046,16.360876 1776.534668,10.086415 1776.000000,2.904872 
	C1928.041870,2.000000 2080.083740,2.000000 2233.062744,2.896724 
	C2235.120117,18.680349 2235.527100,33.622406 2239.497070,48.199299 
	C2241.500244,55.555004 2242.331299,63.222469 2243.934570,70.696938 
	C2245.254639,76.849014 2246.669678,83.004822 2248.510986,89.015465 
	C2251.426270,98.532310 2254.353760,108.076797 2257.958984,117.344025 
	C2264.105713,133.145920 2269.800537,149.241531 2277.469971,164.304962 
	C2288.454102,185.878448 2302.298096,205.852463 2316.450195,225.490448 
	C2321.665283,232.726959 2328.209717,239.030258 2334.348877,245.570160 
	C2345.502930,257.451874 2355.994629,270.139008 2368.297363,280.702393 
	C2378.813965,289.732025 2387.550781,301.070374 2400.564941,307.223419 
	C2404.990723,309.315887 2408.601074,313.064178 2412.840820,315.631927 
	C2427.282959,324.378784 2441.604736,333.370453 2456.442139,341.401398 
	C2465.114258,346.095520 2474.613037,349.311371 2483.859863,352.882690 
	C2495.323730,357.310333 2506.694580,362.193878 2518.495117,365.484558 
	C2537.043945,370.657043 2555.915771,374.672424 2574.658203,379.146149 
	C2576.269531,379.530701 2578.001465,379.476562 2579.567871,379.971771 
	C2587.999512,382.637421 2595.843018,378.437134 2604.000000,378.000000 
	C2604.000000,529.375122 2604.000000,680.750244 2604.000000,833.062683 
z"/>
<path fill="#354259" opacity="1.000000" stroke="none" 
	d="
M2.000008,780.937317 
	C3.378396,782.042175 5.650022,783.942383 6.000528,786.148010 
	C10.890793,816.919861 22.702417,845.598511 32.647934,874.825317 
	C41.407780,900.567749 50.045135,926.377625 59.798630,951.749390 
	C71.008606,980.910034 83.440506,1009.599792 95.226471,1038.540894 
	C99.093094,1048.035522 102.422035,1057.750122 106.325424,1067.228760 
	C109.736092,1075.510864 113.659866,1083.580200 117.265656,1091.783691 
	C124.465698,1108.164429 131.412689,1124.659424 138.831451,1140.939941 
	C144.035492,1152.360229 149.793182,1163.530396 155.398407,1174.765137 
	C171.151047,1206.338135 186.718765,1238.006958 202.841415,1269.390381 
	C210.071365,1283.463745 218.630737,1296.847778 226.260956,1310.723633 
	C234.716721,1326.101196 242.443787,1341.886841 251.148071,1357.117798 
	C259.496887,1371.726685 268.682892,1385.857666 277.516693,1400.188965 
	C283.394440,1409.724609 289.294464,1419.246460 295.194183,1428.768555 
	C301.302856,1438.627686 307.425659,1448.478027 313.537964,1458.334961 
	C321.592468,1471.323975 329.339325,1484.516968 337.784515,1497.246704 
	C345.469177,1508.829834 354.024689,1519.831177 361.990234,1531.232910 
	C372.640930,1546.478149 382.994629,1561.930908 393.659454,1577.166138 
	C402.985260,1590.488525 412.396698,1603.757935 422.079620,1616.821411 
	C431.754852,1629.874512 441.701691,1642.731323 451.736542,1655.511475 
	C461.559479,1668.021362 471.643616,1680.326172 481.806580,1693.360596 
	C322.100464,1694.000000 162.200897,1694.000000 2.000000,1694.000000 
	C2.000000,1389.958252 2.000000,1085.916504 2.000008,780.937317 
z"/>
<path fill="#465267" opacity="1.000000" stroke="none" 
	d="
M757.974487,710.000916 
	C756.662537,707.934753 754.413879,705.965271 754.188965,703.786865 
	C752.591675,688.314697 745.904663,674.439331 741.008667,660.002441 
	C733.230652,637.067322 725.303467,614.180115 717.804138,591.153809 
	C711.743408,572.544922 706.122375,553.790344 700.499512,535.042419 
	C697.544067,525.188416 694.844238,515.250610 692.306580,505.279938 
	C686.254700,481.501648 680.054321,457.754272 674.497314,433.858704 
	C668.252747,407.006622 662.089355,380.111969 656.936340,353.036835 
	C652.475464,329.598602 649.486633,305.880524 645.829163,282.289001 
	C643.492310,267.215637 640.744812,252.194473 638.859009,237.065460 
	C636.234009,216.006821 634.210510,194.872589 631.990845,173.764252 
	C630.084229,155.631912 628.263977,137.490494 626.403931,119.353249 
	C626.302185,118.360550 626.121521,117.371796 626.084473,116.377228 
	C625.380066,97.460579 624.686646,78.543518 624.001465,59.626156 
	C623.328247,41.041821 622.666687,22.457066 622.000000,2.936247 
	C734.041809,2.000000 846.083557,2.000000 959.062744,2.936247 
	C961.278137,27.420635 962.480103,50.973228 963.856384,74.515625 
	C965.135742,96.400040 966.211792,118.307190 968.097534,140.142136 
	C969.868103,160.642899 972.319702,181.096146 974.968262,201.505844 
	C976.806213,215.669159 979.442810,229.730438 981.799927,243.824387 
	C985.471497,265.778320 988.699097,287.824249 993.106140,309.630859 
	C995.816833,323.043610 999.491638,336.150818 995.529114,350.421082 
	C988.927734,354.259277 982.757446,357.525970 976.660217,360.923828 
	C920.719116,392.098572 874.802917,434.007141 839.778259,487.833099 
	C807.672241,537.173706 786.308716,591.012085 771.917175,647.781738 
	C766.696350,668.376160 762.589600,689.252930 757.974487,710.000916 
z"/>
<path fill="#4C576C" opacity="1.000000" stroke="none" 
	d="
M995.994080,349.910400 
	C999.491638,336.150818 995.816833,323.043610 993.106140,309.630859 
	C988.699097,287.824249 985.471497,265.778320 981.799927,243.824387 
	C979.442810,229.730438 976.806213,215.669159 974.968262,201.505844 
	C972.319702,181.096146 969.868103,160.642899 968.097534,140.142136 
	C966.211792,118.307190 965.135742,96.400040 963.856384,74.515625 
	C962.480103,50.973228 961.278137,27.420635 960.000000,2.936247 
	C1078.041748,2.000000 1196.083618,2.000000 1315.062744,2.000000 
	C1316.685791,21.912647 1316.955200,41.852016 1318.230225,61.726860 
	C1318.884033,71.916412 1321.365479,81.985916 1322.955811,92.119904 
	C1323.417603,95.063042 1323.745605,98.034348 1323.978394,101.005020 
	C1325.429688,119.520576 1326.080933,138.137360 1328.460449,156.531326 
	C1331.096313,176.908813 1335.152710,197.110458 1338.868652,217.337570 
	C1341.440674,231.337128 1344.550049,245.237152 1347.290894,259.206818 
	C1348.813599,266.966736 1350.354858,274.793304 1345.112061,283.155457 
	C1296.877808,282.664062 1249.731934,283.796387 1202.807007,290.143311 
	C1157.607178,296.256989 1112.938232,304.977600 1069.914307,320.338104 
	C1044.938477,329.255035 1020.612488,339.992279 995.994080,349.910400 
z"/>
<path fill="#606A7D" opacity="1.000000" stroke="none" 
	d="
M2604.000000,377.062683 
	C2595.843018,378.437134 2587.999512,382.637421 2579.567871,379.971771 
	C2578.001465,379.476562 2576.269531,379.530701 2574.658203,379.146149 
	C2555.915771,374.672424 2537.043945,370.657043 2518.495117,365.484558 
	C2506.694580,362.193878 2495.323730,357.310333 2483.859863,352.882690 
	C2474.613037,349.311371 2465.114258,346.095520 2456.442139,341.401398 
	C2441.604736,333.370453 2427.282959,324.378784 2412.840820,315.631927 
	C2408.601074,313.064178 2404.990723,309.315887 2400.564941,307.223419 
	C2387.550781,301.070374 2378.813965,289.732025 2368.297363,280.702393 
	C2355.994629,270.139008 2345.502930,257.451874 2334.348877,245.570160 
	C2328.209717,239.030258 2321.665283,232.726959 2316.450195,225.490448 
	C2302.298096,205.852463 2288.454102,185.878448 2277.469971,164.304962 
	C2269.800537,149.241531 2264.105713,133.145920 2257.958984,117.344025 
	C2254.353760,108.076797 2251.426270,98.532310 2248.510986,89.015465 
	C2246.669678,83.004822 2245.254639,76.849014 2243.934570,70.696938 
	C2242.331299,63.222469 2241.500244,55.555004 2239.497070,48.199299 
	C2235.527100,33.622406 2235.120117,18.680349 2234.000000,2.896724 
	C2357.188477,2.000000 2480.377197,2.000000 2604.000000,2.000000 
	C2604.000000,126.708122 2604.000000,251.416748 2604.000000,377.062683 
z"/>
<path fill="#FEFEFE" opacity="1.000000" stroke="none" 
	d="
M995.529114,350.421082 
	C1020.612488,339.992279 1044.938477,329.255035 1069.914307,320.338104 
	C1112.938232,304.977600 1157.607178,296.256989 1202.807007,290.143311 
	C1249.731934,283.796387 1296.877808,282.664062 1345.061768,283.891754 
	C1369.707275,287.074921 1393.585083,289.531891 1417.109741,293.892914 
	C1468.928101,303.499084 1517.682007,321.950623 1563.519897,347.907562 
	C1656.507202,400.564087 1726.112671,476.097168 1778.023071,568.637512 
	C1802.308716,611.931274 1824.903320,656.104370 1843.149902,702.364319 
	C1859.003296,742.556641 1870.714844,783.904053 1872.898560,827.179504 
	C1874.119873,851.386292 1873.096802,875.816956 1871.441650,900.034363 
	C1868.366211,945.033936 1860.072266,989.168884 1846.023804,1032.131958 
	C1836.685303,1060.691040 1824.889160,1088.190796 1810.605957,1115.357056 
	C1799.503784,1133.109741 1789.209106,1150.685425 1777.377197,1167.156860 
	C1742.387573,1215.867310 1699.198975,1256.317017 1649.358887,1289.437012 
	C1577.801514,1336.988770 1500.933716,1373.141479 1417.482666,1394.619507 
	C1387.391235,1402.364258 1356.866211,1407.267212 1324.882324,1408.680176 
	C1300.000122,1408.584961 1275.994751,1408.843628 1252.046631,1407.794678 
	C1230.108765,1406.833984 1208.235962,1404.415894 1186.326904,1402.740234 
	C1180.378052,1402.285278 1174.386719,1402.371094 1168.442139,1401.880005 
	C1163.291748,1401.454346 1158.134277,1400.803833 1153.058350,1399.839233 
	C1118.439941,1393.261230 1084.319214,1384.881470 1051.931274,1370.617432 
	C1008.023560,1351.280273 970.086426,1323.494995 937.007751,1288.902710 
	C905.924561,1256.397095 881.250061,1219.299683 859.186646,1180.326904 
	C823.785461,1117.794556 795.059204,1052.342041 772.987793,983.952271 
	C754.289551,926.014771 744.455383,866.891113 748.722107,804.255371 
	C748.909790,799.767517 748.964966,796.863892 749.020142,793.960327 
	C749.476379,788.567627 749.932556,783.174927 750.554321,776.276733 
	C750.827942,772.499817 750.936035,770.228516 751.044067,767.957153 
	C751.489319,763.885193 751.934570,759.813232 752.581421,754.333618 
	C752.872253,751.269775 752.961426,749.613525 753.050598,747.957275 
	C753.499207,744.541077 753.947815,741.124817 754.600281,736.319092 
	C754.899536,733.272766 754.995056,731.615967 755.090515,729.959106 
	C755.488342,727.843140 755.886108,725.727112 756.531006,722.274292 
	C756.930054,719.280457 757.081909,717.623352 757.233826,715.966309 
	C757.553345,714.482727 757.872864,712.999084 758.083374,710.758179 
	C762.589600,689.252930 766.696350,668.376160 771.917175,647.781738 
	C786.308716,591.012085 807.672241,537.173706 839.778259,487.833099 
	C874.802917,434.007141 920.719116,392.098572 976.660217,360.923828 
	C982.757446,357.525970 988.927734,354.259277 995.529114,350.421082 
M1240.667603,1023.703491 
	C1240.774780,1025.738403 1240.881958,1027.773315 1240.786743,1031.645386 
	C1240.687988,1037.787231 1240.589233,1043.929077 1239.986938,1051.777710 
	C1239.553833,1067.473022 1239.120605,1083.168457 1238.650146,1100.216187 
	C1248.438965,1099.184326 1256.778442,1098.305176 1265.381592,1097.398193 
	C1263.702393,1086.235718 1262.211426,1076.453613 1260.765625,1066.664795 
	C1259.858765,1060.525635 1259.019653,1054.376221 1258.279297,1046.344360 
	C1258.217896,1036.887817 1258.156494,1027.431274 1258.400513,1016.267700 
	C1260.993652,993.312805 1263.586792,970.357910 1266.242554,946.848328 
	C1257.789917,946.018494 1249.350708,945.189941 1241.407104,944.410034 
	C1234.608154,970.070923 1222.702148,991.438416 1204.918335,1010.569519 
	C1196.183472,999.776672 1190.538208,988.613098 1185.386719,977.011414 
	C1180.065063,965.026733 1180.124512,952.095398 1178.564941,938.661743 
	C1166.052856,941.572388 1154.840576,944.180603 1142.611694,947.025391 
	C1164.071533,1001.297485 1168.045532,1056.296509 1155.934204,1113.103394 
	C1168.612183,1116.153931 1180.601318,1119.038818 1193.541382,1122.152466 
	C1192.541504,1109.275269 1191.712402,1098.049561 1190.787109,1086.831909 
	C1189.855713,1075.542358 1188.530151,1064.276489 1187.929321,1052.970947 
	C1187.349365,1042.056274 1184.706177,1031.155762 1187.860962,1019.779480 
	C1193.828003,1029.975098 1199.795044,1040.170654 1206.307983,1051.298950 
	C1213.642334,1045.187988 1220.146118,1039.769043 1227.457642,1033.677002 
	C1222.162354,1029.989502 1222.880615,1026.109985 1225.075684,1021.926697 
	C1229.402832,1013.680237 1233.557251,1005.343140 1239.423218,997.018677 
	C1239.909180,997.269348 1240.395020,997.519958 1240.621216,999.573364 
	C1240.808960,1004.971252 1240.996826,1010.369202 1240.949463,1017.382019 
	C1241.040283,1019.008057 1241.131104,1020.634094 1240.667603,1023.703491 
M1006.032959,1023.627502 
	C1006.247681,1025.701416 1006.462402,1027.775269 1006.963867,1031.678467 
	C1006.831055,1037.812134 1006.698242,1043.945923 1006.115417,1051.884277 
	C1005.662476,1067.358398 1005.209534,1082.832520 1004.750183,1098.524902 
	C1014.229675,1100.940308 1022.483398,1098.427368 1032.015381,1096.891479 
	C1030.867676,1092.261475 1029.859741,1088.195679 1028.889893,1082.753662 
	C1028.495483,1080.532349 1028.101074,1078.311157 1027.903076,1074.385742 
	C1027.254517,1068.286621 1026.722656,1062.171631 1025.904541,1056.095337 
	C1025.535522,1053.354492 1024.596313,1050.690430 1024.301147,1046.411987 
	C1024.294922,1036.916382 1024.288696,1027.420898 1024.631226,1016.315247 
	C1025.692749,1003.558899 1026.754272,990.802490 1028.284424,977.067932 
	C1028.202637,976.715820 1028.120850,976.363647 1028.533813,974.534058 
	C1030.188721,965.554321 1031.843506,956.574585 1033.610840,946.984009 
	C1023.962585,946.033997 1015.540405,945.204712 1007.510925,944.414124 
	C1000.690308,970.076538 988.767029,991.446716 971.185120,1010.450012 
	C962.087585,999.895935 956.679810,988.578796 951.488464,977.007446 
	C946.124146,965.050537 946.120728,952.143738 944.788147,938.644043 
	C932.207642,941.563782 920.993042,944.166504 908.767578,947.003784 
	C930.047913,1001.245361 934.305664,1056.206055 922.021851,1113.078613 
	C934.661438,1116.126343 946.662781,1119.020264 959.724487,1122.169922 
	C956.839050,1086.940918 954.085876,1053.327026 951.332642,1019.713074 
	C952.027527,1019.478638 952.722351,1019.244202 953.417175,1019.009705 
	C959.685364,1029.595581 965.953552,1040.181274 972.531555,1051.290283 
	C979.946899,1045.070312 986.268677,1039.767700 992.453125,1034.580078 
	C988.902649,1027.544800 988.670471,1027.434937 991.571838,1021.304138 
	C995.410950,1013.191528 999.658386,1005.272095 1005.176636,997.045471 
	C1005.888611,997.710876 1006.600525,998.376343 1006.980530,1000.458801 
	C1007.166931,1005.552368 1007.353394,1010.645996 1007.289062,1017.350952 
	C1007.062622,1018.950867 1006.836182,1020.550720 1006.032959,1023.627502 
M1359.360840,1079.515381 
	C1345.251099,1083.854126 1330.968994,1085.690186 1316.664551,1083.193481 
	C1316.664551,1068.352051 1316.664551,1054.251953 1316.664551,1038.810059 
	C1325.912354,1039.741455 1333.938965,1040.549927 1341.815430,1041.343262 
	C1341.815430,1033.266479 1341.815430,1025.480957 1341.815430,1017.297485 
	C1333.318237,1018.653076 1326.044678,1023.034180 1318.128662,1021.001770 
	C1318.128662,1003.859070 1318.128662,987.365479 1318.128662,970.570435 
	C1334.295166,966.218567 1349.025146,970.756287 1363.949707,973.992554 
	C1363.949707,962.195557 1363.949707,951.027588 1363.949707,938.973877 
	C1337.661987,946.458252 1311.777588,943.614197 1285.200439,941.381226 
	C1298.559204,996.531372 1296.739624,1050.033691 1279.976440,1103.724854 
	C1305.006226,1106.122437 1329.420288,1108.461060 1355.007568,1111.484741 
	C1358.055786,1112.102295 1361.104004,1112.719971 1364.075928,1113.322144 
	C1364.075928,1105.674805 1364.075928,1098.830444 1364.392090,1090.293579 
	C1364.249268,1086.865356 1364.106323,1083.437012 1363.925537,1078.825195 
	C1362.909912,1078.955811 1361.894165,1079.086304 1359.360840,1079.515381 
M1235.457397,584.447449 
	C1225.142944,594.584167 1216.765259,606.249756 1210.249268,619.037537 
	C1185.394531,667.815186 1168.268921,719.034790 1162.984375,773.804565 
	C1161.509644,789.088257 1160.666748,804.468689 1165.352783,819.402100 
	C1170.079346,834.464844 1181.437134,838.339417 1194.932983,830.120483 
	C1206.935913,822.810608 1215.204346,812.070679 1222.887939,800.689514 
	C1226.723145,795.008728 1230.834473,789.514343 1234.820923,783.935669 
	C1235.432739,784.224487 1236.044434,784.513367 1236.656250,784.802185 
	C1236.177734,787.627625 1235.816162,790.478821 1235.199585,793.273743 
	C1233.047241,803.029907 1230.215210,812.680603 1228.783081,822.537292 
	C1227.598145,830.691467 1227.274048,839.139832 1227.926025,847.349976 
	C1228.780029,858.105530 1235.300049,860.880737 1244.557861,855.124329 
	C1247.359863,853.382202 1249.824463,851.067261 1252.324707,848.878845 
	C1254.795166,846.716248 1257.115234,844.381775 1259.811279,841.829163 
	C1273.175659,853.014099 1281.422363,839.882263 1291.438965,834.922974 
	C1291.739624,836.148621 1292.032837,836.785095 1292.030273,837.420410 
	C1292.006714,843.483215 1291.569702,850.194214 1298.086670,853.136719 
	C1304.817627,856.175720 1309.496704,850.897827 1313.573486,846.682495 
	C1321.166260,838.831848 1328.243896,830.482910 1335.520142,822.359009 
	C1342.317627,829.775024 1343.184326,829.867859 1351.409058,823.805481 
	C1352.480835,823.015381 1353.507690,822.163269 1354.544067,821.326172 
	C1369.195801,809.492371 1381.223999,795.284241 1391.644287,779.711182 
	C1405.342773,759.238953 1415.140381,737.201599 1417.565063,712.352966 
	C1417.946899,708.439514 1418.496460,704.542419 1418.957642,700.726318 
	C1427.595947,700.380127 1431.716919,703.458679 1431.711304,712.074402 
	C1431.706787,718.914551 1430.397095,726.023743 1428.238770,732.540405 
	C1422.459717,749.989441 1414.476562,766.450134 1403.758545,781.502197 
	C1398.156372,789.369629 1392.599609,797.278381 1387.323120,805.364624 
	C1384.807739,809.219299 1382.703613,813.526245 1387.440063,818.827942 
	C1389.897217,816.768494 1392.357666,815.189453 1394.198975,813.072144 
	C1399.659668,806.792908 1405.025635,800.418457 1410.155640,793.867554 
	C1419.394653,782.070068 1428.333740,770.036743 1437.632080,758.287170 
	C1439.868774,755.460876 1443.022095,753.359924 1445.753784,750.925415 
	C1446.429199,751.433044 1447.104736,751.940674 1447.780273,752.448303 
	C1446.621948,755.361511 1445.568848,758.322083 1444.284302,761.178528 
	C1441.281616,767.855591 1437.619141,774.296326 1435.278198,781.190735 
	C1433.501221,786.424683 1431.721680,792.550049 1432.793579,797.683716 
	C1435.495239,810.623901 1435.412354,823.449341 1434.611206,836.445740 
	C1434.469482,838.745117 1435.501587,841.116943 1436.073242,843.844604 
	C1441.849731,842.191284 1443.682129,838.699646 1443.966675,834.565918 
	C1444.854614,821.664917 1447.707520,808.715393 1444.301880,795.832825 
	C1442.556274,789.230225 1443.883789,783.358459 1446.863281,777.554626 
	C1449.144775,773.110291 1451.737671,768.774292 1453.501099,764.127808 
	C1456.087524,757.312134 1458.463989,750.358704 1460.139771,743.276855 
	C1461.176514,738.895874 1461.979004,733.341187 1457.046997,730.718750 
	C1452.527466,728.315674 1448.968506,732.277588 1445.561646,734.826050 
	C1442.363770,737.218079 1439.331787,739.832092 1436.226929,742.348511 
	C1436.157104,735.686707 1438.067505,730.374573 1438.916748,724.897888 
	C1439.977051,718.061340 1441.228516,710.975647 1440.505859,704.199280 
	C1439.007202,690.144775 1432.642700,685.535583 1418.378906,686.284729 
	C1417.813110,686.314453 1417.216919,685.766296 1416.369507,685.360229 
	C1414.017578,679.077881 1412.567139,671.955261 1405.397827,668.515686 
	C1398.273804,665.098083 1391.300537,668.162781 1384.078247,669.359680 
	C1383.530884,663.830261 1383.227051,658.855591 1382.499268,653.943726 
	C1381.768677,649.014160 1380.998291,644.032959 1379.576660,639.274170 
	C1375.058594,624.149414 1365.874390,619.161255 1350.668701,623.148926 
	C1349.433838,623.472717 1348.133545,623.546997 1347.768188,623.601746 
	C1343.569458,620.043030 1340.483276,616.044373 1336.438354,614.391296 
	C1332.463257,612.766724 1327.514648,613.523865 1323.605835,613.274902 
	C1321.224121,605.983154 1319.488403,599.203064 1316.821167,592.811707 
	C1311.427368,579.886780 1302.737915,577.224976 1290.401978,584.180481 
	C1287.948608,585.563782 1285.490356,586.938599 1282.784302,588.457764 
	C1281.335083,585.651367 1280.313843,583.580139 1279.211060,581.553223 
	C1271.859985,568.042725 1260.502319,564.993469 1247.611084,573.519531 
	C1243.504028,576.235901 1240.156128,580.100464 1235.457397,584.447449 
M1550.266235,1018.733154 
	C1551.780762,997.314819 1553.295288,975.896545 1554.846191,953.963379 
	C1546.846069,953.194702 1538.448120,952.387878 1529.371826,951.515808 
	C1530.615845,980.840637 1531.793945,1008.614258 1532.985107,1036.695312 
	C1522.937744,1038.254028 1514.246826,1038.585327 1505.630615,1034.921143 
	C1504.551758,1002.616089 1507.300171,970.962769 1511.394531,939.021973 
	C1498.983276,939.021973 1487.259277,939.021973 1474.815552,939.021973 
	C1483.624268,1000.033997 1484.731323,1060.366821 1476.326294,1121.342163 
	C1488.893311,1121.342163 1500.369141,1121.342163 1512.973145,1121.342163 
	C1510.098022,1097.934204 1506.875854,1075.004517 1506.220093,1051.255981 
	C1515.832764,1049.805542 1524.532104,1048.472900 1533.709595,1051.185425 
	C1534.541992,1065.687988 1535.354614,1079.847778 1536.218750,1094.903442 
	C1545.515869,1093.105469 1553.869019,1091.489990 1563.064697,1089.711548 
	C1555.303955,1066.692749 1550.897339,1043.954956 1550.266235,1018.733154 
M1642.553589,969.078430 
	C1643.695435,972.042786 1645.585815,974.938965 1645.862671,977.981995 
	C1648.458008,1006.501038 1649.520264,1035.067017 1646.819092,1063.643311 
	C1645.575317,1076.802490 1643.925049,1089.923340 1642.391479,1103.668091 
	C1654.324097,1103.668091 1665.734131,1103.668091 1678.242065,1103.668091 
	C1671.059204,1058.498047 1669.536499,1014.036682 1675.819580,968.560242 
	C1688.787842,970.396790 1700.439575,972.046875 1711.960693,973.678467 
	C1711.960693,962.152161 1711.960693,951.388062 1711.960693,940.187073 
	C1662.368774,948.344360 1613.528687,946.613464 1564.704590,939.321655 
	C1564.704590,952.139587 1564.704590,963.663025 1564.704590,975.027649 
	C1590.376587,972.982300 1615.503540,970.980347 1642.553589,969.078430 
M1464.768677,1075.491333 
	C1467.156860,1066.557617 1469.506958,1057.618652 1468.812256,1047.589844 
	C1456.953735,1047.589844 1445.459961,1047.589844 1433.541870,1047.589844 
	C1433.541870,1053.147461 1433.863770,1058.110962 1433.449341,1063.012207 
	C1433.050415,1067.730957 1434.334595,1074.249390 1428.159058,1075.616455 
	C1422.477783,1076.874146 1419.525391,1071.219971 1417.014526,1067.137695 
	C1399.802979,1039.151978 1396.601196,1009.218201 1405.804565,977.933899 
	C1408.821655,967.677917 1410.784546,967.075439 1422.392212,969.957153 
	C1423.127808,974.256104 1423.894531,978.735962 1424.738770,983.669617 
	C1436.522949,984.194580 1447.413330,982.259094 1459.006226,978.908203 
	C1456.057129,964.960205 1453.274292,951.798157 1450.483154,938.597229 
	C1430.568604,939.338501 1412.000732,940.029663 1392.956055,940.738586 
	C1390.672485,945.817261 1388.244751,950.531982 1386.384644,955.460876 
	C1370.422852,997.756348 1373.236206,1039.001831 1394.399780,1078.772583 
	C1398.047485,1085.627319 1403.586304,1091.999756 1409.596924,1096.967041 
	C1423.232910,1108.235962 1441.606689,1106.695312 1453.591675,1093.609863 
	C1457.980957,1088.817627 1460.781372,1082.569946 1464.768677,1075.491333 
M1087.260498,1039.428711 
	C1094.108154,1040.093506 1100.955688,1040.758301 1108.041626,1041.446167 
	C1108.041626,1033.559570 1108.041626,1025.716797 1108.041626,1017.747986 
	C1099.809692,1019.281311 1092.206055,1020.697571 1084.429932,1022.146057 
	C1084.429932,1003.893250 1084.429932,987.148315 1084.429932,970.493530 
	C1100.494385,966.447571 1114.955688,970.524719 1130.055176,974.055664 
	C1130.055176,962.375305 1130.055176,951.300049 1130.055176,940.447815 
	C1116.610962,941.648804 1103.814087,943.530151 1090.990845,943.731445 
	C1077.980835,943.935852 1064.944946,942.481384 1051.327148,941.720276 
	C1064.815674,997.022583 1062.630249,1050.452393 1046.167847,1103.672119 
	C1074.740234,1106.484619 1102.326538,1109.199951 1129.989502,1111.922852 
	C1129.989502,1101.099976 1129.989502,1089.979126 1129.989502,1078.093994 
	C1113.957520,1083.371460 1098.485107,1085.987061 1082.474243,1083.131714 
	C1082.474243,1069.078735 1082.424927,1055.529053 1082.599854,1041.982056 
	C1082.610107,1041.192017 1084.434326,1040.425293 1087.260498,1039.428711 
M1586.476807,1015.041809 
	C1582.861206,1049.028931 1575.281982,1082.195679 1564.352417,1115.224854 
	C1574.029297,1117.058228 1582.348022,1118.634277 1591.175781,1120.306885 
	C1592.188599,1108.197998 1593.113892,1097.136475 1594.069702,1085.708862 
	C1598.749634,1085.708862 1602.060181,1085.603882 1605.360840,1085.738892 
	C1608.583740,1085.870728 1611.796753,1086.247681 1615.052979,1086.520386 
	C1616.698242,1094.054443 1618.160645,1100.750610 1619.823608,1108.365845 
	C1626.661987,1106.048828 1632.680054,1104.009888 1639.551025,1101.681885 
	C1620.764282,1064.545166 1617.839844,1026.168701 1621.167480,986.840942 
	C1609.943848,984.784058 1599.982910,982.958557 1589.497559,981.036987 
	C1588.477173,992.758545 1587.585571,1002.999390 1586.476807,1015.041809 
z"/>
<path fill="#465267" opacity="1.000000" stroke="none" 
	d="
M748.412476,794.179810 
	C748.964966,796.863892 748.909790,799.767517 748.539856,803.332275 
	C742.985962,800.239380 742.953491,799.498047 748.412476,794.179810 
z"/>
<path fill="#465267" opacity="1.000000" stroke="none" 
	d="
M750.403076,768.050293 
	C750.936035,770.228516 750.827942,772.499817 750.401367,775.384521 
	C744.989746,772.465576 744.962830,771.806519 750.403076,768.050293 
z"/>
<path fill="#465267" opacity="1.000000" stroke="none" 
	d="
M754.480408,730.031433 
	C754.995056,731.615967 754.899536,733.272766 754.465454,735.464233 
	C749.441040,733.248291 749.427917,732.945435 754.480408,730.031433 
z"/>
<path fill="#465267" opacity="1.000000" stroke="none" 
	d="
M752.443359,748.031189 
	C752.961426,749.613525 752.872253,751.269775 752.447266,753.462524 
	C747.444397,751.255249 747.430542,750.958801 752.443359,748.031189 
z"/>
<path fill="#465267" opacity="1.000000" stroke="none" 
	d="
M756.616211,716.032410 
	C757.081909,717.623352 756.930054,719.280457 756.428711,721.468384 
	C751.422058,719.159302 751.417847,718.852722 756.616211,716.032410 
z"/>
<path fill="#3F4B61" opacity="1.000000" stroke="none" 
	d="
M1235.959229,583.943604 
	C1240.156128,580.100464 1243.504028,576.235901 1247.611084,573.519531 
	C1260.502319,564.993469 1271.859985,568.042725 1279.211060,581.553223 
	C1280.313843,583.580139 1281.335083,585.651367 1282.784302,588.457764 
	C1285.490356,586.938599 1287.948608,585.563782 1290.401978,584.180481 
	C1302.737915,577.224976 1311.427368,579.886780 1316.821167,592.811707 
	C1319.488403,599.203064 1321.224121,605.983154 1323.605835,613.274902 
	C1327.514648,613.523865 1332.463257,612.766724 1336.438354,614.391296 
	C1340.483276,616.044373 1343.569458,620.043030 1347.768188,623.601746 
	C1348.133545,623.546997 1349.433838,623.472717 1350.668701,623.148926 
	C1365.874390,619.161255 1375.058594,624.149414 1379.576660,639.274170 
	C1380.998291,644.032959 1381.768677,649.014160 1382.499268,653.943726 
	C1383.227051,658.855591 1383.530884,663.830261 1384.078247,669.359680 
	C1391.300537,668.162781 1398.273804,665.098083 1405.397827,668.515686 
	C1412.567139,671.955261 1414.017578,679.077881 1416.369507,685.360229 
	C1417.216919,685.766296 1417.813110,686.314453 1418.378906,686.284729 
	C1432.642700,685.535583 1439.007202,690.144775 1440.505859,704.199280 
	C1441.228516,710.975647 1439.977051,718.061340 1438.916748,724.897888 
	C1438.067505,730.374573 1436.157104,735.686707 1436.226929,742.348511 
	C1439.331787,739.832092 1442.363770,737.218079 1445.561646,734.826050 
	C1448.968506,732.277588 1452.527466,728.315674 1457.046997,730.718750 
	C1461.979004,733.341187 1461.176514,738.895874 1460.139771,743.276855 
	C1458.463989,750.358704 1456.087524,757.312134 1453.501099,764.127808 
	C1451.737671,768.774292 1449.144775,773.110291 1446.863281,777.554626 
	C1443.883789,783.358459 1442.556274,789.230225 1444.301880,795.832825 
	C1447.707520,808.715393 1444.854614,821.664917 1443.966675,834.565918 
	C1443.682129,838.699646 1441.849731,842.191284 1436.073242,843.844604 
	C1435.501587,841.116943 1434.469482,838.745117 1434.611206,836.445740 
	C1435.412354,823.449341 1435.495239,810.623901 1432.793579,797.683716 
	C1431.721680,792.550049 1433.501221,786.424683 1435.278198,781.190735 
	C1437.619141,774.296326 1441.281616,767.855591 1444.284302,761.178528 
	C1445.568848,758.322083 1446.621948,755.361511 1447.780273,752.448303 
	C1447.104736,751.940674 1446.429199,751.433044 1445.753784,750.925415 
	C1443.022095,753.359924 1439.868774,755.460876 1437.632080,758.287170 
	C1428.333740,770.036743 1419.394653,782.070068 1410.155640,793.867554 
	C1405.025635,800.418457 1399.659668,806.792908 1394.198975,813.072144 
	C1392.357666,815.189453 1389.897217,816.768494 1387.440063,818.827942 
	C1382.703613,813.526245 1384.807739,809.219299 1387.323120,805.364624 
	C1392.599609,797.278381 1398.156372,789.369629 1403.758545,781.502197 
	C1414.476562,766.450134 1422.459717,749.989441 1428.238770,732.540405 
	C1430.397095,726.023743 1431.706787,718.914551 1431.711304,712.074402 
	C1431.716919,703.458679 1427.595947,700.380127 1418.957642,700.726318 
	C1418.496460,704.542419 1417.946899,708.439514 1417.565063,712.352966 
	C1415.140381,737.201599 1405.342773,759.238953 1391.644287,779.711182 
	C1381.223999,795.284241 1369.195801,809.492371 1354.544067,821.326172 
	C1353.507690,822.163269 1352.480835,823.015381 1351.409058,823.805481 
	C1343.184326,829.867859 1342.317627,829.775024 1335.520142,822.359009 
	C1328.243896,830.482910 1321.166260,838.831848 1313.573486,846.682495 
	C1309.496704,850.897827 1304.817627,856.175720 1298.086670,853.136719 
	C1291.569702,850.194214 1292.006714,843.483215 1292.030273,837.420410 
	C1292.032837,836.785095 1291.739624,836.148621 1291.438965,834.922974 
	C1281.422363,839.882263 1273.175659,853.014099 1259.811279,841.829163 
	C1257.115234,844.381775 1254.795166,846.716248 1252.324707,848.878845 
	C1249.824463,851.067261 1247.359863,853.382202 1244.557861,855.124329 
	C1235.300049,860.880737 1228.780029,858.105530 1227.926025,847.349976 
	C1227.274048,839.139832 1227.598145,830.691467 1228.783081,822.537292 
	C1230.215210,812.680603 1233.047241,803.029907 1235.199585,793.273743 
	C1235.816162,790.478821 1236.177734,787.627625 1236.656250,784.802185 
	C1236.044434,784.513367 1235.432739,784.224487 1234.820923,783.935669 
	C1230.834473,789.514343 1226.723145,795.008728 1222.887939,800.689514 
	C1215.204346,812.070679 1206.935913,822.810608 1194.932983,830.120483 
	C1181.437134,838.339417 1170.079346,834.464844 1165.352783,819.402100 
	C1160.666748,804.468689 1161.509644,789.088257 1162.984375,773.804565 
	C1168.268921,719.034790 1185.394531,667.815186 1210.249268,619.037537 
	C1216.765259,606.249756 1225.142944,594.584167 1235.959229,583.943604 
M1375.936035,726.720642 
	C1376.034546,727.781921 1376.133057,728.843140 1377.797363,729.218811 
	C1385.680664,719.485413 1393.589966,709.772949 1401.422852,699.999207 
	C1402.829346,698.244141 1404.704834,696.351807 1405.002197,694.323303 
	C1405.720459,689.422485 1399.782349,683.065063 1394.730957,682.625549 
	C1387.931396,682.033936 1383.629761,685.575562 1382.502563,692.252502 
	C1380.587158,703.597290 1378.461670,714.906616 1375.936035,726.720642 
M1176.089600,804.458984 
	C1177.136841,799.579895 1177.673462,794.521057 1179.317017,789.851990 
	C1187.823486,765.687317 1196.265381,741.490051 1205.380859,717.552063 
	C1221.221191,675.954468 1240.428589,636.173279 1270.183350,602.351501 
	C1271.401611,600.966675 1272.568115,598.860840 1272.506226,597.136047 
	C1272.130737,586.700378 1261.112671,580.118530 1251.608765,584.590515 
	C1248.928101,585.851929 1246.059937,587.348877 1244.154053,589.510315 
	C1237.146362,597.457825 1229.313477,605.015198 1223.931152,614.001221 
	C1197.594482,657.970093 1181.461670,705.701416 1173.813477,756.315613 
	C1171.324463,772.787292 1169.333374,789.324524 1172.221924,807.264832 
	C1172.993408,808.536560 1173.764771,809.808228 1175.528687,812.716125 
	C1175.528687,809.068054 1175.528687,807.520569 1176.089600,804.458984 
M1235.757812,764.535645 
	C1237.967773,760.115051 1239.152344,754.419312 1242.653320,751.604004 
	C1246.815308,748.257263 1247.912964,744.190002 1249.489014,739.938660 
	C1256.536987,720.926331 1263.561890,701.905457 1270.523438,682.861328 
	C1271.884155,679.138977 1273.634888,675.365479 1273.990723,671.503540 
	C1275.422119,655.971252 1276.500122,640.402283 1277.410645,624.829407 
	C1277.609497,621.429077 1276.580566,617.956970 1275.888916,612.824036 
	C1273.156616,615.507935 1271.574829,616.646851 1270.526978,618.156372 
	C1261.620972,630.985474 1251.774170,643.300232 1244.168701,656.867493 
	C1221.465210,697.367737 1206.142456,741.072754 1190.896851,784.737427 
	C1188.614990,791.273010 1187.614258,798.309875 1186.562012,805.197449 
	C1186.057617,808.499512 1185.151978,812.458496 1189.641602,815.587952 
	C1207.601318,801.453308 1222.995728,785.195557 1235.757812,764.535645 
M1293.978882,814.837219 
	C1296.280029,810.846497 1298.965088,807.025757 1300.819580,802.837280 
	C1312.130615,777.288879 1323.265381,751.662292 1334.425537,726.047302 
	C1336.147827,722.094543 1338.163452,718.189697 1339.251343,714.054382 
	C1343.516357,697.841003 1345.232178,681.310242 1343.859131,664.578308 
	C1343.298462,657.744263 1341.925049,650.976929 1340.753662,643.043274 
	C1330.899536,648.966064 1323.297607,653.810181 1323.273804,665.580444 
	C1323.255859,674.494080 1321.491455,683.442078 1320.087769,692.308838 
	C1312.836914,738.107849 1299.264648,781.682556 1274.316528,821.214294 
	C1272.766235,823.670715 1271.554321,826.340637 1270.120728,829.031738 
	C1274.605835,831.619446 1277.878174,830.025330 1280.712280,827.544250 
	C1284.957642,823.827759 1288.950684,819.823059 1293.978882,814.837219 
M1237.486206,832.780029 
	C1237.831543,835.852234 1238.176880,838.924438 1238.545166,842.199829 
	C1251.048828,838.416443 1257.039551,830.798889 1257.286133,819.897461 
	C1257.391357,815.239868 1257.535767,810.551025 1258.152222,805.941956 
	C1265.267578,752.743042 1281.914673,702.888245 1310.878540,657.464294 
	C1314.938232,651.097351 1315.109619,644.971436 1312.620483,636.795410 
	C1297.739502,652.392761 1286.498169,668.584473 1279.829712,687.732849 
	C1274.907593,701.866943 1271.326172,716.596924 1265.084961,730.108765 
	C1257.885132,745.695618 1252.942139,761.795105 1249.120972,778.341553 
	C1245.081055,795.835510 1241.518921,813.439697 1237.486206,832.780029 
M1312.973877,832.115479 
	C1314.347656,830.667969 1315.806396,829.291443 1317.082642,827.762573 
	C1345.293213,793.969788 1361.046387,754.464417 1369.996094,711.887939 
	C1371.044922,706.898254 1371.270142,701.735413 1372.121582,694.606567 
	C1358.496582,705.407959 1348.770386,716.396912 1344.310547,731.174438 
	C1336.008789,758.681824 1325.230591,785.036621 1310.203369,809.637024 
	C1305.149780,817.909607 1303.051147,827.249817 1303.606567,839.031677 
	C1307.335205,836.408447 1309.638428,834.788147 1312.973877,832.115479 
M1301.799072,734.681213 
	C1309.719482,705.599426 1313.003906,683.904053 1310.281006,676.417297 
	C1287.625244,718.373474 1272.485107,762.092773 1269.093140,809.543152 
	C1284.541016,787.120239 1293.877075,762.085815 1301.799072,734.681213 
M1354.627808,805.573120 
	C1357.806274,802.655823 1361.155151,799.901855 1364.135620,796.794556 
	C1383.258057,776.857605 1398.257202,754.449524 1404.812500,727.194458 
	C1405.987549,722.308838 1406.162476,717.182678 1406.969849,710.822815 
	C1389.811401,724.416992 1352.876465,788.784546 1350.799683,807.380493 
	C1351.762207,807.050842 1352.640259,806.750061 1354.627808,805.573120 
M1287.107666,637.787903 
	C1287.107666,641.580017 1287.107666,645.372131 1287.107666,650.393188 
	C1295.777100,640.585083 1303.655884,631.799133 1311.321655,622.831055 
	C1312.234619,621.762878 1312.563110,619.544189 1312.175659,618.129028 
	C1310.605469,612.392944 1309.236084,606.479431 1306.675781,601.170166 
	C1303.968262,595.555847 1299.578613,594.393616 1294.164551,596.368652 
	C1287.740479,598.712097 1285.803955,601.681213 1286.107666,608.148926 
	C1286.544556,617.452698 1286.832031,626.763428 1287.107666,637.787903 
M1353.800293,659.371521 
	C1353.800293,670.703613 1353.800293,682.035645 1353.800293,694.649658 
	C1359.777710,689.296448 1364.616333,685.316345 1368.983154,680.872559 
	C1370.651611,679.174744 1372.296875,676.337036 1372.135132,674.153564 
	C1371.476196,665.264771 1370.941406,656.220337 1368.785767,647.628418 
	C1366.429077,638.235229 1362.556152,636.779663 1351.925659,638.947998 
	C1352.520874,645.073853 1353.123169,651.272583 1353.800293,659.371521 
M1324.187500,634.534912 
	C1325.008911,635.587158 1325.830322,636.639343 1326.651733,637.691528 
	C1329.111206,635.729919 1331.570557,633.768250 1334.289795,631.599426 
	C1326.904541,627.196045 1326.904541,627.196045 1324.187500,634.534912 
M1445.999390,751.000549 
	C1446.396484,751.266968 1446.793579,751.533386 1447.190674,751.799805 
	C1447.124634,751.200195 1447.058594,750.600586 1445.999390,751.000549 
M1435.040161,742.021179 
	C1434.976440,742.608704 1434.912842,743.196167 1434.849243,743.783691 
	C1435.232666,743.522583 1435.615967,743.261475 1435.040161,742.021179 
z"/>
<path fill="#3B475E" opacity="1.000000" stroke="none" 
	d="
M1237.783203,997.043579 
	C1233.557251,1005.343140 1229.402832,1013.680237 1225.075684,1021.926697 
	C1222.880615,1026.109985 1222.162354,1029.989502 1227.457642,1033.677002 
	C1220.146118,1039.769043 1213.642334,1045.187988 1206.307983,1051.298950 
	C1199.795044,1040.170654 1193.828003,1029.975098 1187.860962,1019.779480 
	C1184.706177,1031.155762 1187.349365,1042.056274 1187.929321,1052.970947 
	C1188.530151,1064.276489 1189.855713,1075.542358 1190.787109,1086.831909 
	C1191.712402,1098.049561 1192.541504,1109.275269 1193.541382,1122.152466 
	C1180.601318,1119.038818 1168.612183,1116.153931 1155.934204,1113.103394 
	C1168.045532,1056.296509 1164.071533,1001.297485 1142.611694,947.025391 
	C1154.840576,944.180603 1166.052856,941.572388 1178.564941,938.661743 
	C1180.124512,952.095398 1180.065063,965.026733 1185.386719,977.011414 
	C1190.538208,988.613098 1196.183472,999.776672 1204.918335,1010.569519 
	C1222.702148,991.438416 1234.608154,970.070923 1241.407104,944.410034 
	C1249.350708,945.189941 1257.789917,946.018494 1266.242554,946.848328 
	C1263.586792,970.357910 1260.993652,993.312805 1257.717407,1017.593384 
	C1254.034912,1019.957520 1251.035645,1020.995850 1248.018799,1022.017761 
	C1248.001465,1022.001282 1247.971069,1021.973145 1247.886719,1021.359741 
	C1245.596558,1019.086609 1243.390625,1017.426819 1241.184692,1015.767090 
	C1240.996826,1010.369202 1240.808960,1004.971252 1241.036865,998.270325 
	C1240.887695,996.176453 1240.322876,995.385620 1239.758179,994.594727 
	C1239.099854,995.410950 1238.441406,996.227234 1237.783203,997.043579 
M1253.271362,1014.817810 
	C1253.744141,1014.544800 1254.216919,1014.271790 1254.689575,1013.998718 
	C1254.304443,1013.594543 1253.919312,1013.190430 1253.534180,1012.786316 
	C1253.255981,1013.257446 1252.977783,1013.728516 1253.271362,1014.817810 
z"/>
<path fill="#3B475E" opacity="1.000000" stroke="none" 
	d="
M1003.730347,997.269653 
	C999.658386,1005.272095 995.410950,1013.191528 991.571838,1021.304138 
	C988.670471,1027.434937 988.902649,1027.544800 992.453125,1034.580078 
	C986.268677,1039.767700 979.946899,1045.070312 972.531555,1051.290283 
	C965.953552,1040.181274 959.685364,1029.595581 953.417175,1019.009705 
	C952.722351,1019.244202 952.027527,1019.478638 951.332642,1019.713074 
	C954.085876,1053.327026 956.839050,1086.940918 959.724487,1122.169922 
	C946.662781,1119.020264 934.661438,1116.126343 922.021851,1113.078613 
	C934.305664,1056.206055 930.047913,1001.245361 908.767578,947.003784 
	C920.993042,944.166504 932.207642,941.563782 944.788147,938.644043 
	C946.120728,952.143738 946.124146,965.050537 951.488464,977.007446 
	C956.679810,988.578796 962.087585,999.895935 971.185120,1010.450012 
	C988.767029,991.446716 1000.690308,970.076538 1007.510925,944.414124 
	C1015.540405,945.204712 1023.962585,946.033997 1033.610840,946.984009 
	C1031.843506,956.574585 1030.188721,965.554321 1027.911743,975.323730 
	C1027.465088,976.757629 1027.640503,977.401855 1027.815918,978.046143 
	C1026.754272,990.802490 1025.692749,1003.558899 1023.887695,1017.565063 
	C1020.102844,1019.883057 1017.061523,1020.951172 1014.010071,1022.009521 
	C1013.999878,1021.999756 1013.985352,1021.985352 1013.911987,1021.383911 
	C1011.739014,1019.101501 1009.639404,1017.420532 1007.539795,1015.739563 
	C1007.353394,1010.645996 1007.166931,1005.552368 1007.360962,999.134277 
	C1007.199524,996.814880 1006.657715,995.820007 1006.115845,994.825195 
	C1005.320679,995.640015 1004.525513,996.454834 1003.730347,997.269653 
M1019.208618,973.944275 
	C1020.257141,973.413696 1021.326721,972.916260 1022.314697,972.290039 
	C1022.394409,972.239502 1021.913635,971.304504 1021.693298,970.780518 
	C1020.662476,971.257019 1019.551636,971.619446 1018.637024,972.261414 
	C1018.221802,972.552979 1018.195496,973.398499 1016.760376,974.015564 
	C1015.104736,974.684326 1013.449158,975.353088 1011.793518,976.021851 
	C1012.122375,976.538208 1012.451233,977.054504 1012.780090,977.570862 
	C1014.521362,976.382996 1016.262634,975.195129 1019.208618,973.944275 
M1020.791748,1014.247925 
	C1020.000244,1013.631958 1019.208740,1013.015930 1018.417236,1012.399963 
	C1018.230347,1012.943726 1017.786743,1013.894409 1017.898438,1013.964905 
	C1018.597290,1014.405762 1019.419983,1014.650146 1020.791748,1014.247925 
M1012.158569,970.965942 
	C1012.677795,971.077332 1013.196960,971.188721 1013.716187,971.300049 
	C1013.318481,971.046570 1012.920776,970.793091 1012.158569,970.965942 
M1013.156982,1013.048157 
	C1013.156982,1013.048157 1012.982605,1013.146484 1013.156982,1013.048157 
z"/>
<path fill="#3B475E" opacity="1.000000" stroke="none" 
	d="
M1550.267334,1019.649902 
	C1550.897339,1043.954956 1555.303955,1066.692749 1563.064697,1089.711548 
	C1553.869019,1091.489990 1545.515869,1093.105469 1536.218750,1094.903442 
	C1535.354614,1079.847778 1534.541992,1065.687988 1533.709595,1051.185425 
	C1524.532104,1048.472900 1515.832764,1049.805542 1506.220093,1051.255981 
	C1506.875854,1075.004517 1510.098022,1097.934204 1512.973145,1121.342163 
	C1500.369141,1121.342163 1488.893311,1121.342163 1476.326294,1121.342163 
	C1484.731323,1060.366821 1483.624268,1000.033997 1474.815552,939.021973 
	C1487.259277,939.021973 1498.983276,939.021973 1511.394531,939.021973 
	C1507.300171,970.962769 1504.551758,1002.616089 1505.630615,1034.921143 
	C1514.246826,1038.585327 1522.937744,1038.254028 1532.985107,1036.695312 
	C1531.793945,1008.614258 1530.615845,980.840637 1529.371826,951.515808 
	C1538.448120,952.387878 1546.846069,953.194702 1554.846191,953.963379 
	C1553.295288,975.896545 1551.780762,997.314819 1550.267334,1019.649902 
z"/>
<path fill="#38455C" opacity="1.000000" stroke="none" 
	d="
M1641.592041,969.028442 
	C1615.503540,970.980347 1590.376587,972.982300 1564.704590,975.027649 
	C1564.704590,963.663025 1564.704590,952.139587 1564.704590,939.321655 
	C1613.528687,946.613464 1662.368774,948.344360 1711.960693,940.187073 
	C1711.960693,951.388062 1711.960693,962.152161 1711.960693,973.678467 
	C1700.439575,972.046875 1688.787842,970.396790 1675.819580,968.560242 
	C1669.536499,1014.036682 1671.059204,1058.498047 1678.242065,1103.668091 
	C1665.734131,1103.668091 1654.324097,1103.668091 1642.391479,1103.668091 
	C1643.925049,1089.923340 1645.575317,1076.802490 1646.819092,1063.643311 
	C1649.520264,1035.067017 1648.458008,1006.501038 1645.862671,977.981995 
	C1645.585815,974.938965 1643.695435,972.042786 1641.592041,969.028442 
z"/>
<path fill="#3A465D" opacity="1.000000" stroke="none" 
	d="
M1464.537598,1076.238770 
	C1460.781372,1082.569946 1457.980957,1088.817627 1453.591675,1093.609863 
	C1441.606689,1106.695312 1423.232910,1108.235962 1409.596924,1096.967041 
	C1403.586304,1091.999756 1398.047485,1085.627319 1394.399780,1078.772583 
	C1373.236206,1039.001831 1370.422852,997.756348 1386.384644,955.460876 
	C1388.244751,950.531982 1390.672485,945.817261 1392.956055,940.738586 
	C1412.000732,940.029663 1430.568604,939.338501 1450.483154,938.597229 
	C1453.274292,951.798157 1456.057129,964.960205 1459.006226,978.908203 
	C1447.413330,982.259094 1436.522949,984.194580 1424.738770,983.669617 
	C1423.894531,978.735962 1423.127808,974.256104 1422.392212,969.957153 
	C1410.784546,967.075439 1408.821655,967.677917 1405.804565,977.933899 
	C1396.601196,1009.218201 1399.802979,1039.151978 1417.014526,1067.137695 
	C1419.525391,1071.219971 1422.477783,1076.874146 1428.159058,1075.616455 
	C1434.334595,1074.249390 1433.050415,1067.730957 1433.449341,1063.012207 
	C1433.863770,1058.110962 1433.541870,1053.147461 1433.541870,1047.589844 
	C1445.459961,1047.589844 1456.953735,1047.589844 1468.812256,1047.589844 
	C1469.506958,1057.618652 1467.156860,1066.557617 1464.537598,1076.238770 
M1412.121460,950.806213 
	C1412.128418,950.070190 1412.149414,949.333252 1412.102417,948.600708 
	C1412.099976,948.562134 1411.520874,948.560547 1411.210083,948.541687 
	C1411.203125,949.290771 1411.196167,950.039795 1412.121460,950.806213 
z"/>
<path fill="#3A465D" opacity="1.000000" stroke="none" 
	d="
M1086.337402,1039.538086 
	C1084.434326,1040.425293 1082.610107,1041.192017 1082.599854,1041.982056 
	C1082.424927,1055.529053 1082.474243,1069.078735 1082.474243,1083.131714 
	C1098.485107,1085.987061 1113.957520,1083.371460 1129.989502,1078.093994 
	C1129.989502,1089.979126 1129.989502,1101.099976 1129.989502,1111.922852 
	C1102.326538,1109.199951 1074.740234,1106.484619 1046.167847,1103.672119 
	C1062.630249,1050.452393 1064.815674,997.022583 1051.327148,941.720276 
	C1064.944946,942.481384 1077.980835,943.935852 1090.990845,943.731445 
	C1103.814087,943.530151 1116.610962,941.648804 1130.055176,940.447815 
	C1130.055176,951.300049 1130.055176,962.375305 1130.055176,974.055664 
	C1114.955688,970.524719 1100.494385,966.447571 1084.429932,970.493530 
	C1084.429932,987.148315 1084.429932,1003.893250 1084.429932,1022.146057 
	C1092.206055,1020.697571 1099.809692,1019.281311 1108.041626,1017.747986 
	C1108.041626,1025.716797 1108.041626,1033.559570 1108.041626,1041.446167 
	C1100.955688,1040.758301 1094.108154,1040.093506 1086.337402,1039.538086 
z"/>
<path fill="#3A465D" opacity="1.000000" stroke="none" 
	d="
M1353.834473,1110.799683 
	C1329.420288,1108.461060 1305.006226,1106.122437 1279.976440,1103.724854 
	C1296.739624,1050.033691 1298.559204,996.531372 1285.200439,941.381226 
	C1311.777588,943.614197 1337.661987,946.458252 1363.949707,938.973877 
	C1363.949707,951.027588 1363.949707,962.195557 1363.949707,973.992554 
	C1349.025146,970.756287 1334.295166,966.218567 1318.128662,970.570435 
	C1318.128662,987.365479 1318.128662,1003.859070 1318.128662,1021.001770 
	C1326.044678,1023.034180 1333.318237,1018.653076 1341.815430,1017.297485 
	C1341.815430,1025.480957 1341.815430,1033.266479 1341.815430,1041.343262 
	C1333.938965,1040.549927 1325.912354,1039.741455 1316.664551,1038.810059 
	C1316.664551,1054.251953 1316.664551,1068.352051 1316.664551,1083.193481 
	C1330.968994,1085.690186 1345.251099,1083.854126 1360.876709,1079.622681 
	C1362.916138,1079.822876 1363.439819,1079.915894 1363.963379,1080.008789 
	C1364.106323,1083.437012 1364.249268,1086.865356 1363.623779,1091.265015 
	C1357.024170,1093.094360 1356.182617,1097.601685 1355.451782,1102.256104 
	C1355.002319,1105.118042 1354.379395,1107.952759 1353.834473,1110.799683 
z"/>
<path fill="#3B475E" opacity="1.000000" stroke="none" 
	d="
M1586.585449,1014.140991 
	C1587.585571,1002.999390 1588.477173,992.758545 1589.497559,981.036987 
	C1599.982910,982.958557 1609.943848,984.784058 1621.167480,986.840942 
	C1617.839844,1026.168701 1620.764282,1064.545166 1639.551025,1101.681885 
	C1632.680054,1104.009888 1626.661987,1106.048828 1619.823608,1108.365845 
	C1618.160645,1100.750610 1616.698242,1094.054443 1615.052979,1086.520386 
	C1611.796753,1086.247681 1608.583740,1085.870728 1605.360840,1085.738892 
	C1602.060181,1085.603882 1598.749634,1085.708862 1594.069702,1085.708862 
	C1593.113892,1097.136475 1592.188599,1108.197998 1591.175781,1120.306885 
	C1582.348022,1118.634277 1574.029297,1117.058228 1564.352417,1115.224854 
	C1575.281982,1082.195679 1582.861206,1049.028931 1586.585449,1014.140991 
M1610.314575,1056.411865 
	C1608.735107,1047.689575 1607.155640,1038.967163 1605.576172,1030.244873 
	C1599.595581,1044.806274 1596.929565,1059.782959 1595.277344,1075.414429 
	C1601.867065,1075.414429 1607.307373,1075.414429 1613.704956,1075.414429 
	C1612.562134,1069.056519 1611.576538,1063.573486 1610.314575,1056.411865 
z"/>
<path fill="#4C576C" opacity="1.000000" stroke="none" 
	d="
M1258.150269,1048.231445 
	C1259.019653,1054.376221 1259.858765,1060.525635 1260.765625,1066.664795 
	C1262.211426,1076.453613 1263.702393,1086.235718 1265.381592,1097.398193 
	C1256.778442,1098.305176 1248.438965,1099.184326 1238.650146,1100.216187 
	C1239.120605,1083.168457 1239.553833,1067.473022 1240.919434,1050.794189 
	C1245.904541,1049.869385 1249.957275,1049.928223 1254.075439,1050.140381 
	C1254.140747,1050.293945 1254.519043,1050.331055 1254.519043,1050.331055 
	C1254.519043,1050.331055 1253.988281,1050.008301 1254.292603,1049.647217 
	C1255.781372,1048.934448 1256.965820,1048.582886 1258.150269,1048.231445 
M1245.083496,1054.991333 
	C1245.083496,1054.991333 1244.967407,1055.039062 1245.083496,1054.991333 
z"/>
<path fill="#4C576C" opacity="1.000000" stroke="none" 
	d="
M1028.851807,1084.130005 
	C1029.859741,1088.195679 1030.867676,1092.261475 1032.015381,1096.891479 
	C1022.483398,1098.427368 1014.229675,1100.940308 1004.750183,1098.524902 
	C1005.209534,1082.832520 1005.662476,1067.358398 1007.014404,1050.844238 
	C1011.943054,1049.867676 1015.972778,1049.931396 1020.070190,1050.152100 
	C1020.138000,1050.309082 1020.536499,1050.342163 1020.536499,1050.342163 
	C1020.536499,1050.342163 1019.997559,1050.001465 1020.393860,1049.602539 
	C1021.832031,1048.799561 1022.873840,1048.395508 1023.915710,1047.991455 
	C1024.596313,1050.690430 1025.535522,1053.354492 1025.904541,1056.095337 
	C1026.722656,1062.171631 1027.254517,1068.286621 1027.442993,1075.721680 
	C1025.701904,1079.918213 1025.651367,1082.453613 1028.851807,1084.130005 
z"/>
<path fill="#606A7D" opacity="1.000000" stroke="none" 
	d="
M1020.002441,1049.995117 
	C1015.972778,1049.931396 1011.943054,1049.867676 1007.239380,1049.941895 
	C1006.698242,1043.945923 1006.831055,1037.812134 1007.504395,1030.628174 
	C1013.073608,1029.459106 1014.330688,1026.358765 1014.020264,1022.019226 
	C1017.061523,1020.951172 1020.102844,1019.883057 1023.713257,1018.370117 
	C1024.288696,1027.420898 1024.294922,1036.916382 1024.108398,1047.201660 
	C1022.873840,1048.395508 1021.832031,1048.799561 1020.395081,1049.601807 
	C1020.000000,1050.000000 1020.002441,1049.995117 1020.002441,1049.995117 
z"/>
<path fill="#606A7D" opacity="1.000000" stroke="none" 
	d="
M1254.010010,1049.986938 
	C1249.957275,1049.928223 1245.904541,1049.869385 1241.171143,1049.940796 
	C1240.589233,1043.929077 1240.687988,1037.787231 1241.554199,1030.596191 
	C1247.418945,1029.471191 1248.220215,1026.127441 1248.036255,1022.034302 
	C1251.035645,1020.995850 1254.034912,1019.957520 1257.564697,1018.446899 
	C1258.156494,1027.431274 1258.217896,1036.887817 1258.214844,1047.287842 
	C1256.965820,1048.582886 1255.781372,1048.934448 1254.298462,1049.643066 
	C1254.000000,1050.000000 1254.010010,1049.986938 1254.010010,1049.986938 
z"/>
<path fill="#5A6477" opacity="1.000000" stroke="none" 
	d="
M1354.421021,1111.142212 
	C1354.379395,1107.952759 1355.002319,1105.118042 1355.451782,1102.256104 
	C1356.182617,1097.601685 1357.024170,1093.094360 1363.465576,1092.111328 
	C1364.075928,1098.830444 1364.075928,1105.674805 1364.075928,1113.322144 
	C1361.104004,1112.719971 1358.055786,1112.102295 1354.421021,1111.142212 
z"/>
<path fill="#3B475E" opacity="1.000000" stroke="none" 
	d="
M1014.010010,1022.009460 
	C1014.330688,1026.358765 1013.073608,1029.459106 1007.360962,1029.713623 
	C1006.462402,1027.775269 1006.247681,1025.701416 1007.059692,1022.870544 
	C1010.052795,1022.070862 1012.019043,1022.028076 1013.985352,1021.985352 
	C1013.985352,1021.985352 1013.999878,1021.999756 1014.010010,1022.009460 
z"/>
<path fill="#3B475E" opacity="1.000000" stroke="none" 
	d="
M1248.018799,1022.017822 
	C1248.220215,1026.127441 1247.418945,1029.471191 1241.655273,1029.677490 
	C1240.881958,1027.773315 1240.774780,1025.738403 1241.618896,1022.916626 
	C1244.370361,1022.077576 1246.170776,1022.025391 1247.971069,1021.973145 
	C1247.971069,1021.973145 1248.001465,1022.001282 1248.018799,1022.017822 
z"/>
<path fill="#606A7D" opacity="1.000000" stroke="none" 
	d="
M1247.886719,1021.359741 
	C1246.170776,1022.025391 1244.370361,1022.077576 1241.895996,1022.194946 
	C1241.131104,1020.634094 1241.040283,1019.008057 1241.067139,1016.574585 
	C1243.390625,1017.426819 1245.596558,1019.086609 1247.886719,1021.359741 
z"/>
<path fill="#606A7D" opacity="1.000000" stroke="none" 
	d="
M1013.911987,1021.383911 
	C1012.019043,1022.028076 1010.052795,1022.070862 1007.348083,1022.132080 
	C1006.836182,1020.550720 1007.062622,1018.950867 1007.414429,1016.545288 
	C1009.639404,1017.420532 1011.739014,1019.101501 1013.911987,1021.383911 
z"/>
<path fill="#606A7D" opacity="1.000000" stroke="none" 
	d="
M1028.870850,1083.441895 
	C1025.651367,1082.453613 1025.701904,1079.918213 1027.344727,1076.573730 
	C1028.101074,1078.311157 1028.495483,1080.532349 1028.870850,1083.441895 
z"/>
<path fill="#606A7D" opacity="1.000000" stroke="none" 
	d="
M1238.603149,997.031128 
	C1238.441406,996.227234 1239.099854,995.410950 1239.758179,994.594727 
	C1240.322876,995.385620 1240.887695,996.176453 1241.166626,997.368896 
	C1240.395020,997.519958 1239.909180,997.269348 1238.603149,997.031128 
z"/>
<path fill="#606A7D" opacity="1.000000" stroke="none" 
	d="
M1004.453491,997.157593 
	C1004.525513,996.454834 1005.320679,995.640015 1006.115845,994.825195 
	C1006.657715,995.820007 1007.199524,996.814880 1007.526917,998.425720 
	C1006.600525,998.376343 1005.888611,997.710876 1004.453491,997.157593 
z"/>
<path fill="#606A7D" opacity="1.000000" stroke="none" 
	d="
M1028.050171,977.557007 
	C1027.640503,977.401855 1027.465088,976.757629 1027.664307,976.062500 
	C1028.120850,976.363647 1028.202637,976.715820 1028.050171,977.557007 
z"/>
<path fill="#5A6477" opacity="1.000000" stroke="none" 
	d="
M1363.944458,1079.416992 
	C1363.439819,1079.915894 1362.916138,1079.822876 1361.635498,1079.473389 
	C1361.894165,1079.086304 1362.909912,1078.955811 1363.944458,1079.416992 
z"/>
<path fill="#F9F9FA" opacity="1.000000" stroke="none" 
	d="
M1235.457275,765.215332 
	C1222.995728,785.195557 1207.601318,801.453308 1189.641602,815.587952 
	C1185.151978,812.458496 1186.057617,808.499512 1186.562012,805.197449 
	C1187.614258,798.309875 1188.614990,791.273010 1190.896851,784.737427 
	C1206.142456,741.072754 1221.465210,697.367737 1244.168701,656.867493 
	C1251.774170,643.300232 1261.620972,630.985474 1270.526978,618.156372 
	C1271.574829,616.646851 1273.156616,615.507935 1275.888916,612.824036 
	C1276.580566,617.956970 1277.609497,621.429077 1277.410645,624.829407 
	C1276.500122,640.402283 1275.422119,655.971252 1273.990723,671.503540 
	C1273.634888,675.365479 1271.884155,679.138977 1270.523438,682.861328 
	C1263.561890,701.905457 1256.536987,720.926331 1249.489014,739.938660 
	C1247.912964,744.190002 1246.815308,748.257263 1242.653320,751.604004 
	C1239.152344,754.419312 1237.967773,760.115051 1235.457275,765.215332 
z"/>
<path fill="#F9F9FA" opacity="1.000000" stroke="none" 
	d="
M1172.424683,805.976440 
	C1169.333374,789.324524 1171.324463,772.787292 1173.813477,756.315613 
	C1181.461670,705.701416 1197.594482,657.970093 1223.931152,614.001221 
	C1229.313477,605.015198 1237.146362,597.457825 1244.154053,589.510315 
	C1246.059937,587.348877 1248.928101,585.851929 1251.608765,584.590515 
	C1261.112671,580.118530 1272.130737,586.700378 1272.506226,597.136047 
	C1272.568115,598.860840 1271.401611,600.966675 1270.183350,602.351501 
	C1240.428589,636.173279 1221.221191,675.954468 1205.380859,717.552063 
	C1196.265381,741.490051 1187.823486,765.687317 1179.317017,789.851990 
	C1177.673462,794.521057 1177.136841,799.579895 1175.291992,805.195068 
	C1173.804443,805.946228 1173.114502,805.961365 1172.424683,805.976440 
z"/>
<path fill="#F5F5F7" opacity="1.000000" stroke="none" 
	d="
M1293.514893,815.389038 
	C1288.950684,819.823059 1284.957642,823.827759 1280.712280,827.544250 
	C1277.878174,830.025330 1274.605835,831.619446 1270.120728,829.031738 
	C1271.554321,826.340637 1272.766235,823.670715 1274.316528,821.214294 
	C1299.264648,781.682556 1312.836914,738.107849 1320.087769,692.308838 
	C1321.491455,683.442078 1323.255859,674.494080 1323.273804,665.580444 
	C1323.297607,653.810181 1330.899536,648.966064 1340.753662,643.043274 
	C1341.925049,650.976929 1343.298462,657.744263 1343.859131,664.578308 
	C1345.232178,681.310242 1343.516357,697.841003 1339.251343,714.054382 
	C1338.163452,718.189697 1336.147827,722.094543 1334.425537,726.047302 
	C1323.265381,751.662292 1312.130615,777.288879 1300.819580,802.837280 
	C1298.965088,807.025757 1296.280029,810.846497 1293.514893,815.389038 
z"/>
<path fill="#F1F2F4" opacity="1.000000" stroke="none" 
	d="
M1237.617188,831.887939 
	C1241.518921,813.439697 1245.081055,795.835510 1249.120972,778.341553 
	C1252.942139,761.795105 1257.885132,745.695618 1265.084961,730.108765 
	C1271.326172,716.596924 1274.907593,701.866943 1279.829712,687.732849 
	C1286.498169,668.584473 1297.739502,652.392761 1312.620483,636.795410 
	C1315.109619,644.971436 1314.938232,651.097351 1310.878540,657.464294 
	C1281.914673,702.888245 1265.267578,752.743042 1258.152222,805.941956 
	C1257.535767,810.551025 1257.391357,815.239868 1257.286133,819.897461 
	C1257.039551,830.798889 1251.048828,838.416443 1238.545166,842.199829 
	C1238.176880,838.924438 1237.831543,835.852234 1237.617188,831.887939 
z"/>
<path fill="#F5F5F7" opacity="1.000000" stroke="none" 
	d="
M1312.457764,832.641663 
	C1309.638428,834.788147 1307.335205,836.408447 1303.606567,839.031677 
	C1303.051147,827.249817 1305.149780,817.909607 1310.203369,809.637024 
	C1325.230591,785.036621 1336.008789,758.681824 1344.310547,731.174438 
	C1348.770386,716.396912 1358.496582,705.407959 1372.121582,694.606567 
	C1371.270142,701.735413 1371.044922,706.898254 1369.996094,711.887939 
	C1361.046387,754.464417 1345.293213,793.969788 1317.082642,827.762573 
	C1315.806396,829.291443 1314.347656,830.667969 1312.457764,832.641663 
z"/>
<path fill="#F1F2F4" opacity="1.000000" stroke="none" 
	d="
M1301.595703,735.466064 
	C1293.877075,762.085815 1284.541016,787.120239 1269.093140,809.543152 
	C1272.485107,762.092773 1287.625244,718.373474 1310.281006,676.417297 
	C1313.003906,683.904053 1309.719482,705.599426 1301.595703,735.466064 
z"/>
<path fill="#F1F2F4" opacity="1.000000" stroke="none" 
	d="
M1354.072998,806.011230 
	C1352.640259,806.750061 1351.762207,807.050842 1350.799683,807.380493 
	C1352.876465,788.784546 1389.811401,724.416992 1406.969849,710.822815 
	C1406.162476,717.182678 1405.987549,722.308838 1404.812500,727.194458 
	C1398.257202,754.449524 1383.258057,776.857605 1364.135620,796.794556 
	C1361.155151,799.901855 1357.806274,802.655823 1354.072998,806.011230 
z"/>
<path fill="#F5F5F7" opacity="1.000000" stroke="none" 
	d="
M1287.145508,636.929565 
	C1286.832031,626.763428 1286.544556,617.452698 1286.107666,608.148926 
	C1285.803955,601.681213 1287.740479,598.712097 1294.164551,596.368652 
	C1299.578613,594.393616 1303.968262,595.555847 1306.675781,601.170166 
	C1309.236084,606.479431 1310.605469,612.392944 1312.175659,618.129028 
	C1312.563110,619.544189 1312.234619,621.762878 1311.321655,622.831055 
	C1303.655884,631.799133 1295.777100,640.585083 1287.107666,650.393188 
	C1287.107666,645.372131 1287.107666,641.580017 1287.145508,636.929565 
z"/>
<path fill="#F5F5F7" opacity="1.000000" stroke="none" 
	d="
M1353.762939,658.421387 
	C1353.123169,651.272583 1352.520874,645.073853 1351.925659,638.947998 
	C1362.556152,636.779663 1366.429077,638.235229 1368.785767,647.628418 
	C1370.941406,656.220337 1371.476196,665.264771 1372.135132,674.153564 
	C1372.296875,676.337036 1370.651611,679.174744 1368.983154,680.872559 
	C1364.616333,685.316345 1359.777710,689.296448 1353.800293,694.649658 
	C1353.800293,682.035645 1353.800293,670.703613 1353.762939,658.421387 
z"/>
<path fill="#F1F2F4" opacity="1.000000" stroke="none" 
	d="
M1376.424438,726.230835 
	C1378.461670,714.906616 1380.587158,703.597290 1382.502563,692.252502 
	C1383.629761,685.575562 1387.931396,682.033936 1394.730957,682.625549 
	C1399.782349,683.065063 1405.720459,689.422485 1405.002197,694.323303 
	C1404.704834,696.351807 1402.829346,698.244141 1401.422852,699.999207 
	C1393.589966,709.772949 1385.680664,719.485413 1377.166748,728.648682 
	C1376.498779,727.462585 1376.461670,726.846741 1376.424438,726.230835 
z"/>
<path fill="#F1F2F4" opacity="1.000000" stroke="none" 
	d="
M1324.179443,633.769775 
	C1326.904541,627.196045 1326.904541,627.196045 1334.289795,631.599426 
	C1331.570557,633.768250 1329.111206,635.729919 1326.651733,637.691528 
	C1325.830322,636.639343 1325.008911,635.587158 1324.179443,633.769775 
z"/>
<path fill="#F1F2F4" opacity="1.000000" stroke="none" 
	d="
M1172.323242,806.620605 
	C1173.114502,805.961365 1173.804443,805.946228 1175.011475,805.952148 
	C1175.528687,807.520569 1175.528687,809.068054 1175.528687,812.716125 
	C1173.764771,809.808228 1172.993408,808.536560 1172.323242,806.620605 
z"/>
<path fill="#606A7D" opacity="1.000000" stroke="none" 
	d="
M1376.180176,726.475708 
	C1376.461670,726.846741 1376.498779,727.462585 1376.383789,728.991455 
	C1376.133057,728.843140 1376.034546,727.781921 1376.180176,726.475708 
z"/>
<path fill="#FEFEFE" opacity="1.000000" stroke="none" 
	d="
M1446.495972,750.500732 
	C1447.058594,750.600586 1447.124634,751.200195 1447.190674,751.799805 
	C1446.793579,751.533386 1446.396484,751.266968 1446.495972,750.500732 
z"/>
<path fill="#FEFEFE" opacity="1.000000" stroke="none" 
	d="
M1435.519775,742.510742 
	C1435.615967,743.261475 1435.232666,743.522583 1434.849243,743.783691 
	C1434.912842,743.196167 1434.976440,742.608704 1435.519775,742.510742 
z"/>
<path fill="#606A7D" opacity="1.000000" stroke="none" 
	d="
M1252.985474,1014.508667 
	C1252.977783,1013.728516 1253.255981,1013.257446 1253.534180,1012.786316 
	C1253.919312,1013.190430 1254.304443,1013.594543 1254.689575,1013.998779 
	C1254.216919,1014.271790 1253.744141,1014.544800 1252.985474,1014.508667 
z"/>
<path fill="#525D71" opacity="1.000000" stroke="none" 
	d="
M1017.992676,973.992676 
	C1018.195496,973.398499 1018.221802,972.552979 1018.637024,972.261414 
	C1019.551636,971.619446 1020.662476,971.257019 1021.693298,970.780518 
	C1021.913635,971.304504 1022.394409,972.239502 1022.314697,972.290039 
	C1021.326721,972.916260 1020.257141,973.413696 1018.604309,973.972168 
	C1018.000000,974.000000 1017.992676,973.992676 1017.992676,973.992676 
z"/>
<path fill="#606A7D" opacity="1.000000" stroke="none" 
	d="
M1020.496704,1014.603760 
	C1019.419983,1014.650146 1018.597290,1014.405762 1017.898438,1013.964905 
	C1017.786743,1013.894409 1018.230347,1012.943726 1018.417236,1012.399963 
	C1019.208740,1013.015930 1020.000244,1013.631958 1020.496704,1014.603760 
z"/>
<path fill="#525D71" opacity="1.000000" stroke="none" 
	d="
M1018.001953,974.003662 
	C1016.262634,975.195129 1014.521362,976.382996 1012.780090,977.570862 
	C1012.451233,977.054504 1012.122375,976.538208 1011.793518,976.021851 
	C1013.449158,975.353088 1015.104736,974.684326 1017.376526,974.004150 
	C1017.992676,973.992676 1018.000000,974.000000 1018.001953,974.003662 
z"/>
<path fill="#525D71" opacity="1.000000" stroke="none" 
	d="
M1012.340820,970.752808 
	C1012.920776,970.793091 1013.318481,971.046570 1013.716187,971.300049 
	C1013.196960,971.188721 1012.677795,971.077332 1012.340820,970.752808 
z"/>
<path fill="#606A7D" opacity="1.000000" stroke="none" 
	d="
M1013.069824,1013.097290 
	C1012.982605,1013.146484 1013.156982,1013.048157 1013.069824,1013.097290 
z"/>
<path fill="#606A7D" opacity="1.000000" stroke="none" 
	d="
M1411.655273,950.797546 
	C1411.196167,950.039795 1411.203125,949.290771 1411.210083,948.541687 
	C1411.520874,948.560547 1412.099976,948.562134 1412.102417,948.600708 
	C1412.149414,949.333252 1412.128418,950.070190 1411.655273,950.797546 
z"/>
<path fill="#F1F2F4" opacity="1.000000" stroke="none" 
	d="
M1610.452759,1057.251099 
	C1611.576538,1063.573486 1612.562134,1069.056519 1613.704956,1075.414429 
	C1607.307373,1075.414429 1601.867065,1075.414429 1595.277344,1075.414429 
	C1596.929565,1059.782959 1599.595581,1044.806274 1605.576172,1030.244873 
	C1607.155640,1038.967163 1608.735107,1047.689575 1610.452759,1057.251099 
z"/>
<path fill="#606A7D" opacity="1.000000" stroke="none" 
	d="
M1245.025391,1055.015137 
	C1244.967407,1055.039062 1245.083496,1054.991333 1245.025391,1055.015137 
z"/>
<path fill="#606A7D" opacity="1.000000" stroke="none" 
	d="
M1253.994141,1050.004150 
	C1253.988281,1050.008301 1254.519043,1050.331055 1254.519043,1050.331055 
	C1254.519043,1050.331055 1254.140747,1050.293945 1254.075439,1050.140381 
	C1254.010010,1049.986938 1254.000000,1050.000000 1253.994141,1050.004150 
z"/>
<path fill="#606A7D" opacity="1.000000" stroke="none" 
	d="
M1019.998779,1050.000732 
	C1019.997559,1050.001465 1020.536499,1050.342163 1020.536499,1050.342163 
	C1020.536499,1050.342163 1020.138000,1050.309082 1020.070190,1050.152100 
	C1020.002441,1049.995117 1020.000000,1050.000000 1019.998779,1050.000732 
z"/>
</svg>